<?xml version="1.0" standalone="no"?>
<!DOCTYPE svg PUBLIC "-//W3C//DTD SVG 20010904//EN"
 "http://www.w3.org/TR/2001/REC-SVG-20010904/DTD/svg10.dtd">
<svg version="1.0" xmlns="http://www.w3.org/2000/svg"
 width="16.000000pt" height="16.000000pt" viewBox="0 0 16.000000 16.000000"
 preserveAspectRatio="xMidYMid meet">
<metadata>
Created by potrace 1.11, written by Peter Selinger 2001-2013
</metadata>
<g transform="translate(0.000000,16.000000) scale(0.002873,-0.002873)"
fill="#000000" stroke="none">
<path d="M2466 5292 c-2 -4 4 -8 14 -8 10 0 16 4 14 8 -3 4 -9 8 -14 8 -5 0
-11 -4 -14 -8z"/>
<path d="M2940 5256 c0 -2 8 -10 18 -17 15 -13 16 -12 3 4 -13 16 -21 21 -21
13z"/>
<path d="M2536 5232 c-2 -4 -1 -14 4 -22 7 -11 9 -9 7 8 -1 24 -3 26 -11 14z"/>
<path d="M3095 5230 c-3 -5 -1 -10 4 -10 6 0 11 5 11 10 0 6 -2 10 -4 10 -3 0
-8 -4 -11 -10z"/>
<path d="M3335 5230 c-3 -5 -1 -10 4 -10 6 0 11 5 11 10 0 6 -2 10 -4 10 -3 0
-8 -4 -11 -10z"/>
<path d="M4135 5230 c-3 -5 -1 -10 4 -10 6 0 11 5 11 10 0 6 -2 10 -4 10 -3 0
-8 -4 -11 -10z"/>
<path d="M4173 5219 c-2 -23 3 -25 10 -4 4 8 3 16 -1 19 -4 3 -9 -4 -9 -15z"/>
<path d="M4279 5238 c-5 -18 -6 -39 -2 -34 4 3 11 1 18 -4 8 -7 12 -5 12 5 0
7 -5 13 -11 12 -6 -1 -10 4 -8 11 2 10 -6 19 -9 10z"/>
<path d="M4455 5230 c-3 -5 -1 -10 4 -10 6 0 11 5 11 10 0 6 -2 10 -4 10 -3 0
-8 -4 -11 -10z"/>
<path d="M4775 5230 c-3 -5 -1 -10 4 -10 6 0 11 5 11 10 0 6 -2 10 -4 10 -3 0
-8 -4 -11 -10z"/>
<path d="M4836 5232 c-3 -4 4 -9 15 -9 23 -2 25 3 4 10 -8 4 -16 3 -19 -1z"/>
<path d="M2314 5213 c3 -4 0 -13 -6 -22 -10 -12 -7 -12 8 2 11 9 23 16 25 15
2 -2 3 -1 1 1 -1 3 -10 6 -18 7 -9 1 -13 0 -10 -3z"/>
<path d="M2455 5210 c-3 -5 -1 -10 4 -10 6 0 11 5 11 10 0 6 -2 10 -4 10 -3 0
-8 -4 -11 -10z"/>
<path d="M2569 5207 c6 -8 7 -18 3 -22 -4 -5 -1 -5 6 -1 10 6 10 11 1 22 -6 8
-14 14 -16 14 -3 0 0 -6 6 -13z"/>
<path d="M2619 5203 c-13 -16 -12 -17 4 -4 14 11 20 11 35 0 15 -13 16 -12 3
4 -7 9 -17 17 -21 17 -4 0 -14 -8 -21 -17z"/>
<path d="M2729 5207 c6 -8 7 -18 3 -22 -4 -5 -1 -5 6 -1 10 6 10 11 1 22 -6 8
-14 14 -16 14 -3 0 0 -6 6 -13z"/>
<path d="M2779 5203 c-13 -16 -12 -17 4 -4 14 11 20 11 35 0 15 -13 16 -12 3
4 -7 9 -17 17 -21 17 -4 0 -14 -8 -21 -17z"/>
<path d="M2923 5209 c9 -6 14 -15 11 -21 -4 -7 -2 -8 5 -4 14 9 -3 36 -23 36
-6 0 -3 -5 7 -11z"/>
<path d="M3529 5207 c6 -8 7 -18 3 -22 -4 -5 -1 -5 6 -1 10 6 10 11 1 22 -6 8
-14 14 -16 14 -3 0 0 -6 6 -13z"/>
<path d="M3579 5203 c-13 -16 -12 -17 4 -4 14 11 20 11 35 0 15 -13 16 -12 3
4 -7 9 -17 17 -21 17 -4 0 -14 -8 -21 -17z"/>
<path d="M3689 5207 c6 -8 7 -18 3 -22 -4 -5 -1 -5 6 -1 10 6 10 11 1 22 -6 8
-14 14 -16 14 -3 0 0 -6 6 -13z"/>
<path d="M3739 5203 c-13 -16 -12 -17 4 -4 14 11 20 11 35 0 15 -13 16 -12 3
4 -7 9 -17 17 -21 17 -4 0 -14 -8 -21 -17z"/>
<path d="M4489 5207 c6 -8 7 -18 3 -22 -4 -5 -1 -5 6 -1 10 6 10 11 1 22 -6 8
-14 14 -16 14 -3 0 0 -6 6 -13z"/>
<path d="M4539 5203 c-13 -16 -12 -17 4 -4 14 11 20 11 35 0 15 -13 16 -12 3
4 -7 9 -17 17 -21 17 -4 0 -14 -8 -21 -17z"/>
<path d="M4806 5212 c-3 -5 1 -9 9 -9 8 0 12 4 9 9 -3 4 -7 8 -9 8 -2 0 -6 -4
-9 -8z"/>
<path d="M4879 5210 c-1 -5 -2 -16 -3 -22 0 -7 -14 -14 -30 -16 -21 -3 -26 0
-20 10 6 11 5 11 -8 0 -18 -15 -59 -13 -70 3 -5 7 -8 6 -8 0 0 -16 -70 -18
-70 -3 0 9 -2 10 -8 2 -10 -16 -322 -15 -322 0 0 7 -3 7 -8 1 -11 -16 -52 -18
-70 -3 -8 7 -13 8 -10 3 4 -7 -12 -11 -43 -13 -37 -1 -48 2 -42 11 5 9 3 9 -8
0 -19 -15 -139 -14 -139 1 0 8 -3 8 -8 1 -11 -16 -85 -17 -79 -1 3 7 -1 13 -8
13 -7 0 -11 -5 -9 -11 3 -8 -61 -12 -226 -13 -166 0 -230 2 -230 11 0 6 -5 4
-10 -4 -9 -13 -11 -13 -20 0 -6 9 -10 10 -10 3 0 -16 -200 -15 -200 1 0 6 -5
4 -10 -4 -9 -13 -11 -13 -20 0 -6 9 -10 10 -10 3 0 -16 -200 -15 -200 1 0 8
-2 8 -8 0 -4 -6 -24 -11 -45 -11 -31 0 -37 3 -33 16 6 15 5 15 -6 0 -11 -14
-44 -16 -240 -16 -160 0 -228 3 -228 11 0 6 -5 4 -10 -4 -9 -13 -11 -13 -20 0
-5 8 -10 10 -10 5 0 -6 -9 -11 -20 -12 -13 -1 -18 2 -13 10 5 9 3 9 -8 0 -18
-15 -119 -14 -138 1 -12 9 -13 8 -7 -2 6 -11 0 -13 -28 -11 -26 3 -41 -2 -56
-19 -12 -12 -26 -19 -32 -16 -6 4 -8 3 -5 -3 8 -12 -31 -56 -43 -48 -5 3 -12
0 -16 -6 -4 -8 -3 -9 4 -5 23 14 11 -5 -21 -34 -21 -20 -38 -27 -52 -24 l-20
6 20 -17 c17 -14 18 -16 2 -11 -10 3 -16 2 -13 -3 8 -12 -124 -142 -136 -135
-6 4 -8 2 -4 -4 8 -14 -22 -44 -37 -35 -7 4 -8 0 -4 -11 6 -14 3 -17 -8 -12
-9 3 -14 2 -11 -2 6 -9 -40 -62 -54 -62 -5 0 -12 -9 -15 -21 -4 -11 -9 -18
-12 -15 -3 3 -14 -6 -25 -19 -11 -14 -24 -22 -30 -19 -7 4 -8 2 -4 -4 7 -12
-33 -54 -45 -46 -4 2 -11 -1 -15 -7 -4 -8 -3 -9 4 -5 7 4 12 2 12 -3 0 -10
-14 -15 -33 -12 -4 0 -7 -5 -7 -13 0 -20 -100 -117 -113 -109 -7 4 -8 0 -4
-11 5 -14 3 -17 -8 -12 -8 3 -14 0 -12 -7 1 -7 -4 -11 -11 -9 -8 1 -11 -2 -8
-7 8 -12 -33 -53 -45 -45 -4 2 -11 -1 -15 -7 -4 -8 -3 -9 4 -5 7 4 12 2 12 -3
0 -10 -14 -15 -34 -12 -5 1 -6 -6 -2 -15 4 -12 2 -15 -9 -10 -8 3 -14 0 -12
-7 1 -7 -4 -11 -10 -10 -7 2 -12 -3 -10 -10 1 -6 -4 -11 -10 -10 -7 2 -12 -3
-10 -10 1 -6 -4 -11 -11 -9 -8 1 -11 -2 -8 -7 8 -12 -33 -53 -45 -45 -4 2 -11
-1 -15 -7 -4 -8 -3 -9 4 -5 7 4 12 2 12 -3 0 -10 -14 -15 -32 -12 -5 0 -7 -5
-5 -12 1 -6 -4 -11 -11 -9 -8 1 -11 -1 -8 -6 6 -10 -40 -62 -54 -62 -6 0 -10
-6 -10 -13 0 -7 -9 -18 -21 -25 -15 -10 -19 -10 -14 -1 5 8 4 10 -4 5 -6 -4
-9 -11 -6 -16 3 -5 -6 -20 -20 -34 -28 -28 -41 -34 -29 -13 4 7 3 9 -2 4 -5
-5 -9 -14 -9 -20 0 -7 -5 -12 -12 -12 -6 0 -15 -4 -20 -9 -5 -5 -3 -6 5 -2 21
12 14 -1 -18 -32 -17 -17 -30 -29 -30 -26 0 2 -8 -4 -18 -14 -11 -9 -17 -20
-15 -24 2 -5 -1 -9 -6 -9 -6 -1 -15 -2 -20 -3 -5 0 -13 -5 -18 -10 -5 -5 -3
-6 5 -2 6 4 12 3 12 -2 0 -14 -29 -24 -43 -15 -7 4 -5 -2 3 -12 14 -17 13 -18
-2 -12 -11 4 -17 2 -15 -6 1 -7 -3 -11 -10 -10 -8 2 -10 -4 -6 -14 4 -11 3
-14 -5 -9 -7 4 -12 4 -12 -1 0 -4 -4 -14 -9 -22 -8 -13 -12 -13 -28 0 -17 13
-17 13 -4 -4 13 -16 13 -20 0 -28 -8 -5 -18 -9 -23 -9 -5 0 -6 -3 -3 -6 4 -4
-10 -20 -30 -35 -20 -16 -33 -29 -29 -29 4 0 -6 -14 -23 -31 -17 -17 -35 -28
-41 -24 -5 3 -7 0 -4 -8 4 -12 -15 -28 -38 -31 -3 -1 -10 -5 -15 -10 -5 -5 -3
-6 5 -2 28 16 8 -11 -44 -61 -38 -37 -57 -62 -57 -78 0 -15 -4 -22 -11 -19 -6
3 -3 -1 7 -9 12 -10 14 -17 8 -22 -6 -3 -11 -11 -11 -16 0 -6 5 -7 12 -3 7 5
8 3 2 -7 -12 -19 -11 -79 1 -79 6 0 6 -3 -1 -8 -7 -4 -10 -58 -9 -154 1 -82
-2 -148 -6 -148 -5 0 -6 8 -3 18 5 14 4 14 -4 2 -7 -9 -7 -18 -1 -26 5 -7 12
-21 14 -32 3 -16 -1 -20 -13 -16 -14 5 -13 2 2 -10 11 -9 15 -16 10 -16 -6 0
-19 -7 -30 -15 -19 -15 -19 -15 1 -8 11 3 17 3 13 -2 -4 -4 -3 -14 3 -22 16
-19 17 -102 2 -108 -16 -5 -17 -45 -2 -45 6 0 9 -6 6 -14 -3 -7 0 -19 6 -25 6
-6 7 -11 1 -11 -5 0 -9 -63 -8 -155 1 -152 0 -155 -20 -150 -19 5 -19 4 1 -6
27 -14 29 -37 5 -55 -16 -13 -16 -14 1 -8 23 8 46 -12 40 -35 -6 -22 12 -37
23 -20 4 8 3 9 -4 5 -7 -4 -12 -2 -12 4 0 7 6 10 13 7 6 -2 11 -11 11 -20 -1
-8 4 -13 11 -11 6 3 17 -2 24 -10 10 -12 8 -17 -8 -26 -12 -6 -21 -15 -21 -21
0 -6 7 -3 16 5 23 24 37 20 73 -20 l33 -36 -22 -15 c-14 -10 -18 -19 -12 -25
13 -13 32 -2 32 18 0 23 10 17 62 -36 34 -34 48 -56 44 -67 -5 -13 -4 -13 7
-4 11 9 17 8 26 -2 11 -14 6 -27 -10 -27 -5 0 -6 8 -2 18 4 11 -1 9 -16 -7
-27 -30 -12 -54 17 -28 10 9 25 17 33 17 8 0 2 -10 -15 -23 -17 -14 -27 -29
-23 -38 4 -10 6 -9 6 4 1 10 6 15 12 12 6 -4 8 -13 5 -21 -3 -8 -1 -14 4 -14
6 0 10 9 10 20 0 11 -6 20 -12 20 -14 0 10 20 24 20 12 0 78 -67 78 -80 0 -6
4 -9 9 -5 11 6 36 -33 27 -43 -3 -3 -6 1 -6 8 0 9 -5 7 -15 -6 -8 -10 -14 -28
-14 -39 1 -16 2 -15 8 5 5 19 13 25 36 25 24 0 29 -4 27 -19 -2 -13 1 -17 11
-13 30 11 57 -52 34 -80 -6 -9 -6 -13 1 -13 6 0 17 -6 25 -14 12 -12 14 -10
14 15 0 25 -2 26 -13 11 -8 -10 -14 -12 -14 -5 0 6 5 15 11 19 8 4 7 9 -2 15
-8 5 -9 9 -3 9 12 0 59 -51 59 -65 0 -5 6 -10 13 -10 13 0 32 -23 32 -40 0 -5
-4 -4 -9 4 -6 9 -11 10 -15 2 -7 -11 6 -15 32 -12 17 3 43 -19 37 -29 -3 -5 4
-11 15 -15 11 -3 19 -12 17 -18 -1 -7 4 -11 11 -9 8 1 11 -2 8 -7 -4 -5 3 -12
14 -16 11 -3 20 -11 20 -17 0 -6 -7 -5 -17 3 -14 12 -16 12 -8 0 6 -11 4 -13
-9 -8 -10 4 -15 3 -11 -3 4 -6 18 -8 32 -6 15 3 32 -1 42 -11 15 -16 15 -16
-3 -10 -12 5 -23 3 -28 -5 -6 -10 -8 -10 -8 0 0 6 -5 12 -11 12 -8 0 -7 -6 2
-16 12 -15 11 -16 -8 -10 -23 7 -41 -8 -22 -20 8 -5 9 -3 4 6 -5 9 -2 10 12 6
12 -4 25 -1 32 7 21 26 67 7 62 -25 0 -5 8 -8 18 -8 22 0 53 -38 44 -53 -4 -6
0 -8 10 -4 11 4 17 1 17 -9 0 -9 5 -13 12 -9 7 4 4 -1 -6 -9 -11 -9 -29 -14
-40 -10 -13 3 -16 2 -9 -3 7 -5 9 -14 4 -22 -7 -11 -11 -10 -20 5 -6 11 -11
14 -11 8 0 -6 6 -17 14 -23 11 -10 17 -8 25 6 9 17 11 17 25 -2 8 -11 16 -15
16 -9 0 5 -5 15 -12 22 -8 8 -8 12 -1 12 6 0 17 -7 24 -16 11 -14 10 -18 -10
-34 -18 -13 -21 -19 -11 -25 9 -5 11 -4 6 3 -4 7 -4 12 1 13 4 0 16 2 26 4 9
2 17 0 18 -3 0 -4 3 -18 5 -32 2 -14 5 -31 6 -37 1 -7 6 -13 11 -13 5 0 7 6 4
13 -20 49 -20 52 7 25 25 -26 36 -56 16 -43 -5 3 -10 1 -10 -5 0 -7 6 -10 13
-7 6 2 11 16 10 31 -2 23 0 26 13 15 8 -7 13 -18 10 -26 -3 -8 -2 -12 3 -9 5
3 14 -1 21 -9 10 -12 10 -18 0 -30 -9 -10 -9 -15 -1 -15 6 0 11 5 11 11 0 5 5
7 10 4 6 -4 8 -10 5 -15 -3 -4 3 -17 13 -29 15 -18 19 -19 36 -6 11 8 14 15 7
15 -7 0 -9 5 -5 11 4 8 9 7 15 -2 4 -7 5 -17 2 -22 -3 -4 1 -7 8 -5 14 3 74
-50 66 -58 -6 -6 -47 36 -47 49 0 7 -4 6 -10 -3 -8 -12 -12 -12 -18 -2 -7 11
-11 10 -20 -1 -10 -11 -6 -13 19 -12 22 1 29 -2 24 -12 -3 -8 5 -23 17 -34 19
-16 21 -20 8 -28 -8 -6 -12 -12 -9 -15 9 -9 50 34 44 45 -12 18 7 8 25 -13 14
-17 15 -26 7 -36 -8 -10 -7 -16 2 -21 7 -5 13 -12 13 -17 -1 -5 5 -8 12 -6 7
1 20 -5 27 -14 12 -15 11 -16 -10 -9 -16 5 -21 4 -17 -4 4 -6 15 -11 25 -11
25 0 33 -11 20 -27 -9 -9 -8 -13 0 -13 6 0 11 4 11 8 0 5 7 9 15 9 10 0 14 -6
10 -14 -3 -8 -5 -16 -5 -19 0 -2 -8 0 -17 3 -15 6 -16 5 -3 -9 14 -15 16 -14
26 3 5 11 14 16 18 12 5 -4 3 3 -4 17 l-13 25 23 -20 c48 -41 75 -70 72 -77
-1 -5 3 -8 8 -8 6 0 10 -4 10 -10 0 -5 -14 -1 -30 8 -19 11 -28 22 -24 32 4
11 2 12 -6 4 -12 -12 -3 -47 11 -38 5 3 9 -4 9 -15 0 -11 5 -23 11 -27 8 -4 9
1 4 17 -7 21 -6 22 9 10 10 -8 14 -22 11 -35 -3 -12 -2 -16 1 -9 4 10 8 10 19
0 7 -7 10 -16 7 -22 -3 -5 2 -4 11 4 24 19 22 -4 -3 -29 -15 -15 -16 -20 -6
-20 8 0 18 9 21 20 4 11 11 17 17 14 6 -4 6 1 -1 14 -18 34 -13 32 32 -11 24
-23 42 -45 40 -49 -2 -4 6 -9 17 -13 16 -5 18 -10 10 -26 -6 -10 -16 -18 -22
-16 -7 1 -13 -7 -15 -18 l-3 -20 9 20 c5 11 10 17 10 12 1 -4 13 1 28 10 15
10 24 12 20 6 -5 -7 -4 -13 2 -13 5 0 17 -7 26 -16 11 -11 35 -17 71 -18 30 0
54 -5 54 -9 0 -5 6 -5 13 0 20 12 86 11 97 -2 7 -8 5 -12 -5 -12 -8 0 -12 5
-9 11 3 6 -1 3 -9 -7 -13 -15 -15 -16 -21 -2 -3 8 -11 15 -18 15 -10 0 -10 -2
1 -9 9 -6 10 -11 2 -15 -6 -4 -11 -2 -11 5 0 8 -5 7 -17 -2 -9 -8 -14 -9 -10
-2 8 13 -18 12 -30 -2 -4 -4 -2 -5 5 -1 6 4 12 2 12 -4 0 -7 8 -9 22 -4 20 6
21 5 10 -8 -10 -12 -9 -18 3 -28 8 -7 12 -17 8 -24 -3 -6 0 -6 7 1 12 11 11
15 -4 26 -16 12 -16 14 -2 26 9 8 19 11 23 8 3 -4 14 -2 24 3 11 6 20 6 24 1
6 -11 -32 -26 -55 -23 -10 2 -9 -1 3 -9 14 -8 22 -8 30 0 17 17 31 13 17 -4
-7 -9 -10 -18 -7 -22 4 -3 9 2 13 11 6 16 8 16 25 0 11 -9 19 -14 19 -10 0 4
-10 16 -22 27 -26 21 -11 26 17 5 14 -10 24 -11 36 -3 13 8 21 6 34 -6 18 -19
35 -22 35 -7 0 5 -3 9 -7 9 -20 -3 -27 2 -14 10 16 10 43 3 36 -9 -13 -21 19
-20 41 1 13 12 24 17 24 11 0 -6 -4 -14 -10 -17 -5 -3 -10 -12 -10 -18 0 -7 5
-4 11 5 6 11 16 15 26 11 12 -5 15 -2 11 8 -20 48 -21 52 -11 46 5 -4 19 0 29
8 25 19 38 19 30 -1 -4 -10 -2 -13 7 -8 9 5 8 3 -1 -7 -10 -11 -14 -11 -21 -1
-6 10 -10 10 -20 -2 -17 -20 3 -30 30 -16 19 10 20 9 15 -8 -5 -15 -1 -22 13
-27 23 -7 44 2 36 15 -9 15 24 19 39 5 18 -18 30 -20 19 -2 -14 22 -13 44 3
44 8 0 13 -6 10 -14 -6 -16 3 -43 15 -43 4 0 6 8 2 18 -3 9 -3 14 2 10 4 -4
15 -2 23 5 17 13 17 14 -4 -37 -5 -14 -4 -17 4 -12 7 4 12 14 12 22 0 8 5 14
10 14 14 0 12 -12 -6 -40 -9 -14 2 -5 24 20 23 25 41 40 42 34 0 -6 -7 -17
-15 -24 -8 -7 -13 -16 -10 -20 3 -5 0 -10 -7 -12 -7 -3 -3 -7 10 -10 19 -5 20
-3 12 12 -8 15 -4 23 22 41 28 21 31 21 24 4 -4 -11 -2 -22 6 -27 18 -11 28
-10 28 2 0 5 -3 9 -7 9 -20 -3 -27 2 -14 10 18 11 43 3 34 -12 -3 -5 -1 -7 5
-3 6 3 9 17 6 29 -2 16 1 24 10 24 23 0 12 -47 -15 -68 -18 -15 -19 -18 -5
-12 13 4 17 3 12 -5 -5 -8 -2 -10 9 -5 10 3 12 8 7 12 -6 4 -3 15 8 29 12 15
21 19 26 11 3 -6 0 -15 -7 -20 -7 -4 -10 -11 -6 -16 10 -10 28 18 22 34 -2 7
0 13 6 13 6 0 7 5 3 11 -5 8 -9 8 -14 -1 -6 -9 -11 -7 -19 9 -7 11 -10 21 -9
22 29 7 48 7 48 -2 0 -6 5 -7 13 -2 20 12 47 14 47 2 0 -5 -4 -8 -9 -4 -6 3
-14 -3 -20 -12 -6 -11 -11 -13 -11 -5 0 7 -5 10 -11 6 -8 -4 -7 -9 2 -15 12
-7 12 -9 0 -9 -11 0 -11 -3 -1 -15 10 -12 10 -15 0 -15 -8 0 -10 -3 -7 -6 4
-4 13 -1 22 6 10 8 15 9 15 1 0 -17 28 -13 39 7 8 14 13 15 29 5 15 -9 22 -9
32 0 10 9 11 7 5 -12 -5 -17 -4 -21 5 -16 7 4 9 17 5 32 -4 16 -2 22 5 18 6
-4 17 -2 24 4 10 8 17 7 27 -5 11 -13 11 -15 -2 -14 -25 4 -36 0 -36 -12 0 -7
-4 -22 -7 -33 -4 -11 1 -6 11 12 13 23 22 30 32 24 9 -6 10 -10 2 -14 -7 -3
-7 -4 1 -3 7 2 12 9 10 16 -2 8 3 10 13 6 9 -3 14 -2 11 3 -3 5 1 12 9 15 12
4 14 0 9 -18 -3 -14 -1 -27 6 -31 9 -5 10 -1 5 15 -5 15 -4 20 4 16 6 -4 9 -2
5 7 -3 8 2 14 11 14 9 0 14 -6 11 -14 -9 -24 4 -44 23 -33 21 11 54 5 95 -18
5 -3 6 0 2 6 -4 7 -14 12 -22 12 -8 0 -12 5 -9 10 4 6 11 7 17 4 6 -4 17 1 24
11 8 10 17 15 21 12 4 -4 1 -13 -5 -19 -7 -7 -12 -17 -12 -23 0 -5 5 -2 11 7
6 11 16 15 26 11 12 -5 15 -2 10 10 -4 9 -10 24 -14 34 -4 10 -2 14 4 10 5 -4
19 0 29 8 25 19 38 19 30 -1 -4 -10 -2 -13 7 -8 9 5 8 3 -1 -7 -10 -11 -14
-11 -21 -1 -6 10 -10 10 -20 -2 -17 -20 3 -30 30 -16 19 10 20 9 15 -8 -5 -15
-1 -22 13 -27 23 -7 44 2 36 15 -9 15 24 19 39 5 18 -18 30 -20 19 -2 -14 22
-13 44 3 44 8 0 13 -6 10 -14 -6 -16 3 -43 15 -43 4 0 6 8 2 18 -3 9 -3 14 2
10 4 -4 15 -2 23 5 16 13 17 13 -5 -40 -4 -11 -3 -14 5 -9 7 4 12 14 12 22 0
8 5 14 10 14 14 0 12 -12 -6 -40 -9 -14 2 -5 24 20 23 25 41 40 42 34 0 -6 -7
-17 -15 -24 -8 -7 -13 -16 -10 -20 3 -5 0 -10 -7 -12 -7 -3 -3 -7 10 -10 19
-5 20 -3 12 12 -8 15 -4 23 22 41 28 21 31 21 24 4 -4 -11 -2 -22 6 -27 18
-11 28 -10 28 2 0 5 -3 9 -7 9 -20 -3 -27 2 -14 10 18 11 43 3 34 -12 -3 -5
-1 -7 5 -3 6 3 9 17 6 29 -2 16 1 24 10 24 23 0 12 -47 -15 -68 -18 -15 -19
-18 -5 -12 13 4 17 3 12 -5 -5 -8 -2 -10 9 -5 10 3 12 8 7 12 -6 4 -3 15 8 29
12 15 21 19 26 11 3 -6 0 -15 -7 -20 -7 -4 -10 -11 -6 -16 10 -10 28 18 22 35
-2 6 0 12 6 12 6 0 7 5 3 11 -5 8 -9 8 -14 -1 -6 -9 -11 -7 -19 9 -7 11 -10
21 -9 22 29 7 48 7 48 -2 0 -6 5 -7 13 -2 20 12 47 14 47 2 0 -5 -4 -8 -9 -4
-6 3 -14 -3 -20 -12 -6 -11 -11 -13 -11 -5 0 7 -5 10 -11 6 -8 -4 -7 -9 2 -15
12 -7 12 -9 0 -9 -11 0 -11 -3 -1 -15 10 -12 10 -15 0 -15 -8 0 -10 -3 -7 -6
4 -4 13 -1 22 6 10 8 15 9 15 1 0 -17 28 -13 39 7 8 14 13 15 29 5 15 -9 22
-9 32 0 10 9 11 7 5 -12 -5 -17 -4 -21 5 -16 7 4 9 17 5 32 -4 16 -2 22 5 18
6 -4 17 -2 24 4 10 8 17 7 27 -5 11 -13 11 -15 -2 -14 -25 4 -36 0 -36 -12 0
-7 -4 -22 -7 -33 -4 -11 1 -6 11 12 13 23 22 30 32 24 9 -6 10 -10 2 -14 -7
-3 -7 -4 1 -3 7 2 12 9 10 16 -2 8 3 10 13 6 9 -3 14 -2 11 3 -3 5 1 12 9 15
12 4 14 0 9 -18 -3 -14 -1 -27 6 -31 9 -5 10 -1 5 15 -5 15 -4 20 4 16 6 -4 9
-2 5 7 -3 8 2 14 11 14 9 0 14 -6 11 -14 -9 -24 4 -44 23 -33 18 9 38 9 56 -1
23 -13 46 -18 40 -9 -3 6 -13 10 -21 10 -8 0 -12 5 -9 10 4 6 11 7 17 4 6 -4
17 1 24 11 8 10 17 15 21 12 4 -4 1 -13 -5 -19 -7 -7 -12 -17 -12 -23 0 -5 5
-2 11 7 6 11 16 15 26 11 12 -5 15 -2 10 10 -4 9 -10 24 -14 34 -4 10 -2 14 4
10 5 -4 19 0 29 8 25 19 38 19 30 -1 -4 -10 -2 -13 7 -8 9 5 8 3 -1 -7 -10
-11 -14 -11 -21 -1 -6 10 -10 10 -20 -2 -17 -20 3 -30 30 -16 19 10 20 9 15
-8 -5 -15 -1 -22 13 -27 23 -7 44 2 36 15 -9 15 24 19 39 5 18 -18 30 -20 19
-2 -14 22 -13 44 3 44 8 0 13 -6 10 -14 -6 -16 3 -43 15 -43 4 0 6 8 2 18 -3
9 -3 14 2 10 4 -4 15 -2 23 5 16 12 16 12 -6 -42 -3 -9 -1 -12 6 -7 7 4 12 14
12 22 0 8 5 14 10 14 14 0 12 -12 -6 -40 -9 -14 2 -5 25 20 30 33 41 40 39 25
-2 -11 -10 -23 -18 -27 -11 -6 -10 -7 5 -5 11 2 19 9 18 15 -2 7 4 12 12 12 8
0 14 -3 14 -8 -3 -19 2 -32 12 -32 8 0 8 4 0 14 -10 12 -5 14 33 11 35 -3 48
0 55 13 6 9 11 14 11 9 0 -4 13 7 30 25 16 18 30 28 30 21 0 -6 -4 -15 -10
-18 -5 -3 -15 -16 -20 -28 -11 -21 -11 -21 4 -3 9 11 16 14 16 8 0 -7 5 -12
11 -12 8 0 8 5 -1 15 -10 12 -9 16 4 21 9 3 13 10 10 15 -3 5 2 9 11 9 9 0 13
-5 10 -11 -4 -6 2 -5 13 2 11 7 19 21 17 31 -4 17 5 22 33 19 7 -1 15 5 18 14
5 13 9 13 23 3 14 -12 15 -11 2 5 -14 18 -16 18 -28 1 -7 -10 -16 -14 -20 -11
-4 4 -1 13 5 19 15 15 16 28 2 28 -5 0 -9 -3 -8 -7 2 -12 -13 -43 -21 -43 -3
0 -6 24 -6 54 -1 46 2 54 17 53 22 -2 23 -11 2 -31 -8 -9 -11 -16 -5 -16 6 0
17 13 26 29 8 16 20 32 27 35 9 4 8 5 -2 5 -30 -2 -41 1 -35 11 4 6 10 8 15 5
12 -7 40 5 40 17 0 6 -7 5 -15 -2 -9 -7 -19 -10 -22 -6 -4 4 -2 11 6 15 10 7
9 10 -3 14 -9 4 -16 12 -16 19 0 9 3 9 12 0 7 -7 16 -12 22 -12 5 0 1 7 -10
16 -13 10 -14 14 -4 11 9 -3 24 1 34 8 16 12 16 14 -3 20 -12 3 -25 4 -30 1
-5 -3 -14 1 -21 9 -14 17 -30 20 -30 4 0 -5 4 -8 8 -5 5 3 9 -1 9 -9 0 -8 -5
-11 -10 -8 -6 3 -7 1 -3 -6 6 -9 11 -9 22 0 20 17 17 -4 -4 -27 -19 -19 -26
-58 -10 -48 5 3 5 11 2 17 -5 8 -3 8 7 -1 9 -9 10 -15 2 -23 -6 -6 -10 -17 -9
-23 2 -6 1 -8 -1 -3 -3 4 -8 5 -11 3 -4 -2 -7 286 -7 640 0 478 3 644 11 644
7 0 14 -7 17 -14 4 -10 1 -13 -9 -9 -7 3 -14 0 -14 -7 0 -6 4 -9 8 -6 4 2 14
0 22 -6 12 -8 12 -9 -3 -4 -12 4 -16 2 -11 -6 5 -7 3 -8 -6 -3 -9 5 -11 4 -6
-4 5 -7 13 -8 23 -2 9 4 23 7 32 6 9 -1 10 0 3 2 -19 7 -4 23 16 17 14 -5 14
-4 2 4 -10 8 -18 8 -27 1 -9 -8 -11 -5 -10 10 1 13 6 20 14 17 7 -3 15 0 19 6
4 6 3 8 -3 5 -5 -3 -25 3 -43 15 -25 15 -31 16 -21 4 9 -10 10 -16 2 -16 -6 0
-11 3 -12 8 0 4 -2 15 -4 25 -2 9 1 17 6 17 6 0 7 6 2 13 -12 19 -12 61 1 70
7 4 8 10 1 15 -13 9 -15 102 -3 102 5 0 6 -5 2 -12 -5 -7 -3 -8 6 -3 10 6 10
11 -3 20 -19 13 -24 30 -6 20 6 -4 5 2 -3 14 -7 12 -17 21 -23 22 -5 0 -43 1
-82 1 -40 0 -73 4 -73 9 0 5 -5 9 -11 9 -5 0 -7 -4 -4 -10 3 -5 0 -10 -9 -10
-8 0 -17 6 -19 13 -4 9 -6 9 -6 0 -1 -19 -22 -16 -37 5 -10 12 -12 12 -9 2 4
-12 -5 -16 -40 -18 -25 -1 -45 2 -45 8 0 5 -8 10 -17 10 -15 0 -16 -2 -3 -10
10 -6 0 -8 -30 -6 -35 2 -45 6 -44 19 1 9 -3 14 -8 11 -5 -3 -7 -12 -4 -20 3
-8 -1 -14 -10 -14 -9 0 -12 5 -8 12 5 7 3 8 -7 2 -21 -13 -109 -16 -109 -3 0
6 -5 7 -12 2 -19 -12 -72 -11 -80 1 -5 8 -8 7 -8 -1 0 -7 -7 -13 -16 -13 -14
0 -15 2 -3 18 13 16 13 16 -5 2 -22 -17 -117 -22 -128 -6 -5 7 -8 7 -8 -1 0
-7 -7 -13 -16 -13 -14 0 -15 2 -3 18 13 16 13 16 -5 2 -22 -17 -117 -22 -128
-6 -5 7 -8 7 -8 -1 0 -7 -7 -13 -16 -13 -14 0 -15 2 -3 18 13 16 13 16 -5 2
-22 -18 -126 -23 -126 -6 0 6 -4 5 -9 -2 -7 -11 -9 -11 -13 0 -3 7 -6 262 -6
566 -1 425 2 552 11 552 8 0 8 3 -2 9 -34 21 5 30 139 29 103 0 138 -3 134
-11 -4 -8 -2 -7 7 1 16 15 49 16 49 1 0 -5 -4 -8 -8 -5 -5 3 -9 -1 -9 -9 0 -9
4 -11 11 -6 6 5 19 7 29 6 9 -2 17 1 17 7 0 6 -7 8 -15 4 -8 -3 -15 -1 -15 4
0 4 64 8 142 8 122 -1 139 -3 123 -14 -10 -8 -14 -14 -9 -14 6 0 15 5 22 12 7
7 29 13 50 14 34 2 36 1 18 -12 -11 -8 -15 -14 -10 -14 6 0 15 5 22 12 7 7 29
13 50 14 34 2 36 1 18 -12 -11 -8 -15 -14 -10 -14 6 0 15 5 22 12 7 7 29 13
50 14 34 2 36 1 18 -12 -11 -8 -15 -14 -9 -14 6 0 16 7 23 15 13 16 85 21 76
6 -4 -5 -17 -8 -31 -7 -13 2 -22 -1 -19 -5 7 -12 41 -6 56 9 17 17 38 15 62
-5 17 -15 18 -15 8 -2 -11 15 -4 17 75 18 48 1 89 4 92 6 2 3 4 34 4 71 0 56
2 64 16 60 14 -5 14 -5 1 6 -19 16 -24 181 -6 170 6 -3 5 2 -3 11 -11 14 -11
20 0 34 10 11 10 14 2 9 -7 -4 -13 -3 -13 3 0 5 5 13 10 16 8 5 7 11 -1 21 -9
11 -8 18 2 31 10 11 10 14 2 9 -7 -4 -13 -3 -13 3 0 5 5 13 10 16 8 5 7 11 -1
21 -9 11 -8 18 2 31 10 11 10 14 2 9 -7 -4 -13 -3 -13 3 0 5 5 13 10 16 8 5 7
11 -1 21 -9 11 -8 18 2 31 10 11 10 14 2 9 -7 -4 -13 -3 -13 3 0 5 5 13 10 16
8 5 7 11 -1 21 -9 11 -8 18 2 31 10 11 10 14 2 9 -7 -4 -13 -3 -13 3 0 5 5 13
10 16 8 5 7 11 -1 21 -9 11 -8 18 2 31 10 11 10 14 2 9 -7 -4 -13 -3 -13 3 0
5 5 13 10 16 8 5 7 11 -1 21 -9 11 -8 18 2 31 10 11 10 14 2 9 -7 -4 -13 -3
-13 3 0 5 5 13 10 16 8 5 7 11 -1 21 -9 11 -8 18 2 31 10 11 10 14 2 9 -7 -4
-13 -3 -13 3 0 5 5 13 10 16 8 5 7 11 -1 21 -9 11 -8 18 2 31 10 11 10 14 2 9
-7 -4 -13 -3 -13 3 0 5 5 13 10 16 8 5 7 11 -1 21 -9 11 -8 18 2 31 10 11 10
14 2 9 -7 -4 -13 -3 -13 3 0 5 5 13 10 16 8 5 7 11 -1 21 -9 11 -8 18 2 31 10
11 10 14 2 9 -7 -4 -13 -3 -13 3 0 5 5 13 10 16 8 5 7 11 -1 21 -9 11 -8 18 2
31 10 11 10 14 2 9 -7 -4 -13 -3 -13 3 0 5 5 13 10 16 8 5 7 11 -1 21 -9 11
-8 18 2 31 10 11 10 14 2 9 -7 -4 -13 -3 -13 3 0 5 5 13 10 16 8 5 7 11 -1 21
-9 11 -8 18 2 31 10 11 10 14 2 9 -16 -9 -17 6 -2 21 8 8 8 13 -1 18 -8 5 -6
11 7 21 14 11 14 13 2 8 -13 -4 -16 2 -15 36 1 23 8 46 16 51 13 9 13 10 -1 6
-13 -4 -15 6 -16 64 0 37 4 66 8 63 4 -2 11 0 14 6 4 6 1 9 -7 8 -8 -2 -14 7
-15 22 0 14 -1 32 -2 40 -1 12 -18 14 -100 12 l-100 -4 5 26 c2 14 2 26 -1 26
-3 0 -6 -4 -6 -10z m-4525 -2555 c3 -8 1 -15 -4 -15 -6 0 -10 7 -10 15 0 8 2
15 4 15 2 0 6 -7 10 -15z m166 -655 c0 -5 -5 -10 -11 -10 -5 0 -7 5 -4 10 3 6
8 10 11 10 2 0 4 -4 4 -10z m130 -140 c0 -5 -5 -10 -11 -10 -5 0 -7 5 -4 10 3
6 8 10 11 10 2 0 4 -4 4 -10z m687 -637 c-5 -8 17 -33 30 -34 5 0 7 -7 5 -16
-2 -8 1 -12 6 -9 8 5 49 -30 94 -80 10 -10 26 -28 37 -38 11 -10 19 -27 18
-37 -5 -28 -12 -30 -26 -7 -12 19 -11 20 6 14 12 -4 10 0 -7 14 -14 11 -22 20
-19 20 4 0 -9 17 -28 38 -19 20 -41 36 -48 34 -8 -1 -24 11 -36 27 -12 17 -27
27 -32 24 -6 -4 -7 -1 -3 6 5 7 0 21 -10 32 -16 18 -16 19 0 19 9 0 15 -3 13
-7z m288 -313 c12 -19 -12 -10 -31 11 -19 22 -19 22 3 10 12 -6 25 -16 28 -21z
m99 -79 c-6 -7 21 -29 30 -23 5 3 6 0 2 -6 -4 -7 -1 -12 8 -12 10 0 13 -6 9
-16 -5 -13 -12 -9 -38 21 -21 26 -36 36 -45 30 -8 -5 -11 -4 -6 3 3 6 1 14 -5
18 -8 5 -8 9 1 14 11 7 51 -19 44 -29z m3446 -105 c0 -11 -19 -15 -25 -6 -3 5
1 10 9 10 9 0 16 -2 16 -4z m-3241 -116 c0 -10 -6 -8 -19 9 -11 12 -17 27 -14
33 7 11 33 -21 33 -42z m436 -180 c-3 -5 -2 -10 4 -10 5 0 13 5 16 10 10 17
28 11 21 -6 -6 -15 -4 -15 10 -3 20 17 54 22 54 8 0 -6 5 -7 13 -2 20 13 41
13 49 0 12 -19 9 -27 -7 -21 -8 4 -12 11 -8 18 3 6 2 7 -3 3 -5 -5 -9 -14 -9
-20 0 -7 -10 -11 -23 -11 -12 1 -22 -3 -22 -8 0 -5 -8 -4 -19 1 -14 8 -20 7
-25 -4 -4 -13 -9 -12 -34 2 -27 15 -42 53 -21 53 6 0 7 -4 4 -10z m210 -18 c1
-11 -3 -19 -8 -15 -5 3 -15 -4 -23 -16 -19 -26 -29 -27 -31 -1 -1 11 2 20 8
20 5 0 9 -5 9 -12 0 -19 13 1 16 25 1 12 3 24 3 25 3 13 25 -8 26 -26z m35 24
c0 -3 -4 -8 -10 -11 -5 -3 -10 -1 -10 4 0 6 5 11 10 11 6 0 10 -2 10 -4z m100
-8 c0 -5 6 -6 13 -1 20 12 47 14 47 2 0 -5 -4 -8 -9 -5 -5 3 -14 0 -20 -8 -9
-11 -9 -15 1 -20 7 -3 1 -3 -14 -1 -26 3 -33 -4 -29 -28 1 -5 -6 -7 -16 -5
-12 2 -17 13 -18 38 0 30 3 35 22 36 13 1 23 -2 23 -8z m120 4 c0 -14 -19 -36
-32 -38 -9 -1 -14 6 -12 20 1 11 3 21 3 21 10 5 41 2 41 -3z m38 0 c12 10 16
10 19 0 3 -6 10 -9 16 -5 20 12 47 14 47 2 0 -6 5 -7 13 -2 20 12 47 14 47 2
0 -5 -4 -8 -9 -5 -5 3 -14 0 -20 -8 -9 -11 -9 -15 1 -19 7 -3 3 -5 -9 -3 -12
1 -26 5 -29 9 -4 4 -13 2 -20 -4 -8 -7 -14 -7 -19 1 -5 8 -13 6 -26 -6 -18
-16 -21 -16 -35 -3 -9 10 -12 23 -8 34 5 12 9 14 12 7 3 -10 7 -10 20 0z m306
-1 c3 -5 -2 -8 -12 -7 -9 0 -16 -5 -14 -11 2 -12 -11 -17 -31 -14 -5 1 -6 -3
-2 -9 4 -7 12 -7 26 0 11 6 17 15 14 21 -7 11 23 7 45 -5 8 -5 12 -6 8 -1 -5
5 2 15 13 23 18 12 23 12 29 1 10 -15 4 -29 -12 -29 -5 0 -8 7 -4 15 10 26 -3
16 -19 -15 -9 -17 -20 -28 -26 -25 -5 4 -7 11 -4 16 8 12 1 11 -29 -2 -14 -7
-23 -16 -20 -20 3 -5 1 -9 -5 -9 -5 0 -13 5 -16 10 -4 6 -11 8 -16 5 -5 -4 -9
-3 -9 2 1 13 26 43 32 38 3 -3 11 1 18 10 14 17 26 19 34 6z m36 5 c0 -3 -4
-8 -10 -11 -5 -3 -10 -1 -10 4 0 6 5 11 10 11 6 0 10 -2 10 -4z m85 -14 c0 -7
5 -12 10 -11 6 0 9 7 7 15 -2 8 2 14 8 14 6 0 8 -4 5 -10 -9 -14 8 -13 23 2 9
9 15 8 28 -8 10 -12 14 -13 11 -4 -3 10 3 15 19 16 13 1 24 -2 24 -8 0 -5 6
-6 13 -1 20 12 47 14 47 2 0 -5 -4 -8 -9 -5 -5 3 -14 0 -20 -8 -9 -11 -9 -15
1 -19 7 -3 3 -4 -9 -4 -12 1 -19 5 -16 11 4 5 1 6 -7 1 -9 -6 -11 -4 -5 5 6 9
4 11 -5 5 -9 -6 -11 -4 -5 5 5 9 4 11 -4 6 -6 -4 -8 -12 -5 -18 5 -7 2 -8 -6
-3 -9 5 -11 4 -6 -4 4 -6 12 -9 17 -6 11 7 11 3 3 -19 -9 -25 -34 -19 -31 7 2
22 -13 26 -76 15 -11 -2 -25 7 -34 19 -13 20 -13 21 4 19 10 -2 18 -8 18 -14z
m240 -8 c1 -16 -4 -20 -23 -18 -18 2 -22 -1 -18 -13 4 -11 2 -13 -9 -10 -8 4
-17 2 -20 -3 -6 -9 -31 -8 -41 3 -4 4 -1 8 7 8 8 1 21 2 29 3 9 0 14 9 12 20
-2 10 1 15 6 12 5 -3 15 1 22 9 17 20 33 14 35 -11z m35 22 c0 -3 -4 -8 -10
-11 -5 -3 -10 -1 -10 4 0 6 5 11 10 11 6 0 10 -2 10 -4z m100 -8 c0 -5 6 -6
13 -1 20 12 47 14 47 2 0 -5 -4 -8 -9 -5 -5 3 -14 0 -20 -8 -9 -11 -9 -15 1
-20 7 -3 1 -3 -14 -1 -26 3 -33 -4 -29 -28 1 -5 -6 -7 -16 -5 -12 2 -17 13
-18 38 0 30 3 35 22 36 13 1 23 -2 23 -8z m120 4 c0 -14 -19 -36 -32 -38 -9
-1 -14 6 -12 20 1 11 3 21 3 21 10 5 41 2 41 -3z m38 0 c12 10 16 10 19 0 3
-6 10 -9 16 -5 20 12 47 14 47 2 0 -6 5 -7 13 -2 20 12 47 14 47 2 0 -5 -4 -8
-9 -5 -5 3 -14 0 -20 -8 -9 -11 -9 -15 1 -19 7 -3 3 -5 -9 -3 -12 1 -26 5 -29
9 -4 4 -13 2 -20 -4 -8 -7 -14 -7 -19 1 -5 8 -13 6 -26 -6 -18 -16 -21 -16
-35 -3 -9 10 -12 23 -8 34 5 12 9 14 12 7 3 -10 7 -10 20 0z m306 -1 c3 -5 -2
-8 -12 -7 -9 0 -16 -5 -14 -11 2 -12 -11 -17 -31 -14 -5 1 -6 -3 -2 -9 4 -7
12 -7 26 0 11 6 17 15 14 21 -7 11 23 7 45 -5 8 -5 12 -6 8 -1 -5 5 2 15 13
23 18 12 23 12 29 1 10 -15 4 -29 -12 -29 -5 0 -8 7 -4 15 10 26 -3 16 -19
-15 -9 -17 -20 -28 -26 -25 -5 4 -7 11 -4 16 8 12 1 11 -29 -2 -14 -7 -23 -16
-20 -20 3 -5 1 -9 -5 -9 -5 0 -13 5 -16 10 -4 6 -11 8 -16 5 -5 -4 -9 -3 -9 2
1 13 26 43 32 38 3 -3 11 1 18 10 14 17 26 19 34 6z m36 5 c0 -3 -4 -8 -10
-11 -5 -3 -10 -1 -10 4 0 6 5 11 10 11 6 0 10 -2 10 -4z m85 -14 c0 -7 5 -12
10 -11 6 0 9 7 7 15 -2 8 2 14 8 14 6 0 8 -4 5 -10 -9 -14 8 -13 23 2 9 9 15
8 28 -8 10 -12 14 -13 11 -4 -3 10 3 15 19 16 13 1 24 -2 24 -8 0 -5 6 -6 13
-1 20 12 47 14 47 2 0 -5 -4 -8 -9 -5 -5 3 -14 0 -20 -8 -9 -11 -9 -15 1 -19
7 -3 3 -4 -9 -4 -12 1 -19 5 -16 11 4 5 1 6 -7 1 -9 -6 -11 -4 -5 5 6 9 4 11
-5 5 -9 -6 -11 -4 -5 5 5 9 4 11 -4 6 -6 -4 -8 -12 -5 -18 5 -7 2 -8 -6 -3 -9
5 -11 4 -6 -4 4 -6 12 -9 17 -6 11 7 11 3 3 -19 -9 -25 -34 -19 -31 7 2 22
-13 26 -76 15 -11 -2 -25 7 -34 19 -13 20 -13 21 4 19 10 -2 18 -8 18 -14z
m240 -8 c1 -16 -4 -20 -23 -18 -18 2 -22 -1 -18 -13 4 -11 2 -13 -9 -10 -8 4
-17 2 -20 -3 -6 -9 -31 -8 -41 3 -4 4 -1 8 7 8 8 1 21 2 29 3 9 0 14 9 12 20
-2 10 1 15 6 12 5 -3 15 1 22 9 17 20 33 14 35 -11z m35 22 c0 -3 -4 -8 -10
-11 -5 -3 -10 -1 -10 4 0 6 5 11 10 11 6 0 10 -2 10 -4z m100 -8 c0 -5 6 -6
13 -1 20 12 47 14 47 2 0 -5 -4 -8 -9 -5 -5 3 -14 0 -20 -8 -9 -11 -9 -15 1
-20 7 -3 1 -3 -14 -1 -26 3 -33 -4 -29 -28 1 -5 -6 -7 -16 -5 -12 2 -17 13
-18 38 0 30 3 35 22 36 13 1 23 -2 23 -8z m120 4 c0 -14 -19 -36 -32 -38 -9
-1 -14 6 -12 20 1 11 3 21 3 21 10 5 41 2 41 -3z m38 0 c12 11 16 11 20 0 3
-10 7 -10 18 -2 16 14 35 4 28 -14 -3 -8 -1 -17 5 -21 6 -3 9 0 6 7 -6 17 12
45 22 34 4 -5 2 -11 -5 -13 -6 -3 -9 -9 -6 -15 3 -5 12 -1 20 10 10 14 25 19
54 19 22 0 40 -3 40 -7 0 -6 -59 -60 -66 -60 -2 0 1 11 7 24 8 16 17 23 28 19
12 -4 13 -3 3 5 -8 5 -23 9 -35 8 -18 -1 -22 -7 -20 -29 1 -15 -2 -27 -7 -27
-6 0 -10 5 -10 10 0 6 -5 10 -11 10 -5 0 -7 -5 -3 -12 4 -7 -8 -3 -28 9 -33
19 -37 20 -52 5 -14 -15 -18 -15 -31 -1 -10 10 -13 22 -9 34 5 12 9 14 12 7 3
-10 7 -10 20 0z m142 -21 c0 -6 -4 -12 -8 -15 -5 -3 -9 1 -9 9 0 8 4 15 9 15
4 0 8 -4 8 -9z"/>
<path d="M1380 1151 c0 -6 4 -13 10 -16 6 -3 7 1 4 9 -7 18 -14 21 -14 7z"/>
<path d="M2381 416 c-9 -11 -8 -15 5 -20 9 -3 22 -3 28 2 6 5 27 8 47 7 23 -1
36 3 36 12 0 9 -4 10 -12 3 -7 -5 -15 -7 -19 -3 -12 13 -35 11 -47 -3 -15 -19
-33 -18 -25 1 7 19 2 19 -13 1z"/>
<path d="M2681 416 c-7 -9 -8 -16 -2 -20 5 -4 12 -2 16 4 4 6 10 8 15 5 4 -3
14 3 21 13 12 15 12 16 -2 5 -10 -9 -19 -9 -26 -2 -7 7 -14 5 -22 -5z"/>
<path d="M2797 413 c3 -7 6 -13 8 -13 2 0 5 6 8 13 3 8 -1 14 -8 14 -7 0 -11
-6 -8 -14z"/>
<path d="M2869 428 c0 -2 -2 -11 -4 -21 -3 -15 -1 -16 11 -6 7 6 11 15 8 20
-5 9 -13 12 -15 7z"/>
<path d="M2905 420 c-3 -5 -1 -11 4 -14 5 -4 13 -2 16 4 5 8 11 8 20 0 9 -7
16 -6 26 7 12 16 12 17 -2 6 -9 -7 -19 -10 -23 -6 -10 11 -35 12 -41 3z"/>
<path d="M3346 422 c-3 -5 1 -9 9 -9 8 0 12 4 9 9 -3 4 -7 8 -9 8 -2 0 -6 -4
-9 -8z"/>
<path d="M3505 419 c-11 -16 -1 -19 13 -3 7 8 8 14 3 14 -5 0 -13 -5 -16 -11z"/>
<path d="M3641 416 c-7 -9 -8 -16 -2 -20 5 -4 12 -2 16 4 4 6 10 8 15 5 4 -3
14 3 21 13 12 15 12 16 -2 5 -10 -9 -19 -9 -26 -2 -7 7 -14 5 -22 -5z"/>
<path d="M3757 413 c3 -7 6 -13 8 -13 2 0 5 6 8 13 3 8 -1 14 -8 14 -7 0 -11
-6 -8 -14z"/>
<path d="M3829 428 c0 -2 -2 -11 -4 -21 -3 -15 -1 -16 11 -6 7 6 11 15 8 20
-5 9 -13 12 -15 7z"/>
<path d="M3865 420 c-3 -5 -1 -11 4 -14 5 -4 13 -2 16 4 5 8 11 8 20 0 9 -7
16 -6 26 7 12 16 12 17 -2 6 -9 -7 -19 -10 -23 -6 -10 11 -35 12 -41 3z"/>
<path d="M4306 422 c-3 -5 1 -9 9 -9 8 0 12 4 9 9 -3 4 -7 8 -9 8 -2 0 -6 -4
-9 -8z"/>
<path d="M4465 419 c-11 -16 -1 -19 13 -3 7 8 8 14 3 14 -5 0 -13 -5 -16 -11z"/>
<path d="M4601 416 c-7 -9 -8 -16 -2 -20 5 -4 12 -2 16 4 4 6 10 8 15 5 4 -3
14 3 21 13 12 15 12 16 -2 5 -10 -9 -19 -9 -26 -2 -7 7 -14 5 -22 -5z"/>
<path d="M4717 413 c3 -7 6 -13 8 -13 2 0 5 6 8 13 3 8 -1 14 -8 14 -7 0 -11
-6 -8 -14z"/>
<path d="M4789 428 c0 -2 -2 -11 -4 -21 -3 -15 -1 -16 11 -6 7 6 11 15 8 20
-5 9 -13 12 -15 7z"/>
<path d="M4825 421 c-3 -5 0 -13 6 -17 7 -4 9 -3 5 4 -3 5 0 13 6 15 9 4 10 6
1 6 -6 1 -14 -3 -18 -8z"/>
<path d="M2512 5197 c-8 -10 -6 -13 11 -14 12 0 16 1 9 4 -6 3 -10 9 -6 14 8
14 -2 11 -14 -4z"/>
<path d="M3074 5201 c4 -5 0 -11 -6 -14 -7 -3 -3 -4 9 -4 17 1 19 4 11 14 -12
15 -22 18 -14 4z"/>
<path d="M3314 5201 c4 -5 0 -11 -6 -14 -7 -3 -3 -4 9 -4 17 1 19 4 11 14 -12
15 -22 18 -14 4z"/>
<path d="M4114 5201 c4 -5 0 -11 -6 -14 -7 -3 -3 -4 9 -4 17 1 19 4 11 14 -12
15 -22 18 -14 4z"/>
<path d="M4194 5202 c3 -5 0 -13 -6 -15 -9 -4 -10 -6 -1 -6 17 -1 25 16 12 25
-7 4 -9 3 -5 -4z"/>
<path d="M4434 5201 c4 -5 0 -11 -6 -14 -7 -3 -3 -4 9 -4 17 1 19 4 11 14 -12
15 -22 18 -14 4z"/>
<path d="M4970 5189 c0 -5 5 -7 10 -4 6 3 10 8 10 11 0 2 -4 4 -10 4 -5 0 -10
-5 -10 -11z"/>
<path d="M1976 5112 c-3 -4 4 -9 15 -9 23 -2 25 3 4 10 -8 4 -16 3 -19 -1z"/>
<path d="M1955 5049 c-3 -4 2 -6 10 -5 21 3 28 13 10 13 -9 0 -18 -4 -20 -8z"/>
<path d="M1850 4971 c0 -6 4 -13 10 -16 6 -3 7 1 4 9 -7 18 -14 21 -14 7z"/>
<path d="M1893 4965 c0 -8 4 -12 9 -9 4 3 8 9 8 15 0 5 -4 9 -8 9 -5 0 -9 -7
-9 -15z"/>
<path d="M5135 4950 c-3 -5 -1 -10 4 -10 6 0 11 5 11 10 0 6 -2 10 -4 10 -3 0
-8 -4 -11 -10z"/>
<path d="M1800 4936 c0 -2 8 -10 18 -17 15 -13 16 -12 3 4 -13 16 -21 21 -21
13z"/>
<path d="M1796 4897 c3 -10 9 -15 12 -12 3 3 0 11 -7 18 -10 9 -11 8 -5 -6z"/>
<path d="M1771 4844 c0 -11 3 -14 6 -6 3 7 2 16 -1 19 -3 4 -6 -2 -5 -13z"/>
<path d="M5113 4835 c0 -8 4 -12 9 -9 5 3 6 10 3 15 -9 13 -12 11 -12 -6z"/>
<path d="M1610 4826 c0 -2 8 -10 18 -17 15 -13 16 -12 3 4 -13 16 -21 21 -21
13z"/>
<path d="M5119 4803 c-13 -16 -12 -17 4 -4 9 7 17 15 17 17 0 8 -8 3 -21 -13z"/>
<path d="M5155 4810 c-3 -5 -1 -10 4 -10 6 0 11 5 11 10 0 6 -2 10 -4 10 -3 0
-8 -4 -11 -10z"/>
<path d="M1699 4763 c-13 -16 -12 -17 4 -4 9 7 17 15 17 17 0 8 -8 3 -21 -13z"/>
<path d="M5110 4770 c0 -5 5 -10 10 -10 6 0 10 5 10 10 0 6 -4 10 -10 10 -5 0
-10 -4 -10 -10z"/>
<path d="M1616 4751 c8 -8 43 -8 38 0 -2 4 -13 7 -24 6 -10 -1 -17 -3 -14 -6z"/>
<path d="M1576 4683 c-6 -14 -5 -15 5 -6 7 7 10 15 7 18 -3 3 -9 -2 -12 -12z"/>
<path d="M1535 4670 c3 -5 8 -10 11 -10 2 0 4 5 4 10 0 6 -5 10 -11 10 -5 0
-7 -4 -4 -10z"/>
<path d="M1550 4630 c0 -5 7 -7 15 -4 8 4 15 8 15 10 0 2 -7 4 -15 4 -8 0 -15
-4 -15 -10z"/>
<path d="M5110 4612 c0 -5 7 -9 15 -9 8 0 12 4 9 9 -3 4 -9 8 -15 8 -5 0 -9
-4 -9 -8z"/>
<path d="M5113 4521 c0 -11 5 -18 9 -15 4 3 5 11 1 19 -7 21 -12 19 -10 -4z"/>
<path d="M1419 4508 c-5 -18 -6 -38 -1 -34 7 8 12 36 6 36 -2 0 -4 -1 -5 -2z"/>
<path d="M1370 4491 c0 -6 4 -13 10 -16 6 -3 7 1 4 9 -7 18 -14 21 -14 7z"/>
<path d="M1333 4439 c-2 -23 3 -25 10 -4 4 8 3 16 -1 19 -4 3 -9 -4 -9 -15z"/>
<path d="M5110 4450 c0 -5 5 -10 10 -10 6 0 10 5 10 10 0 6 -4 10 -10 10 -5 0
-10 -4 -10 -10z"/>
<path d="M1310 4390 c0 -5 7 -7 15 -4 8 4 15 8 15 10 0 2 -7 4 -15 4 -8 0 -15
-4 -15 -10z"/>
<path d="M1130 4346 c0 -2 8 -10 18 -17 15 -13 16 -12 3 4 -13 16 -21 21 -21
13z"/>
<path d="M5110 4292 c0 -5 7 -9 15 -9 8 0 12 4 9 9 -3 4 -9 8 -15 8 -5 0 -9
-4 -9 -8z"/>
<path d="M1150 4276 c0 -2 7 -7 16 -10 8 -3 12 -2 9 4 -6 10 -25 14 -25 6z"/>
<path d="M1145 4229 c-3 -4 2 -6 10 -5 21 3 28 13 10 13 -9 0 -18 -4 -20 -8z"/>
<path d="M5113 4201 c0 -11 5 -18 9 -15 4 3 5 11 1 19 -7 21 -12 19 -10 -4z"/>
<path d="M1085 4190 c-3 -6 1 -7 9 -4 18 7 21 14 7 14 -6 0 -13 -4 -16 -10z"/>
<path d="M1059 4123 c-13 -16 -12 -17 4 -4 9 7 17 15 17 17 0 8 -8 3 -21 -13z"/>
<path d="M5110 4130 c0 -5 5 -10 10 -10 6 0 10 5 10 10 0 6 -4 10 -10 10 -5 0
-10 -4 -10 -10z"/>
<path d="M976 4111 c8 -8 43 -8 38 0 -2 4 -13 7 -24 6 -10 -1 -17 -3 -14 -6z"/>
<path d="M910 4046 c0 -2 8 -10 18 -17 15 -13 16 -12 3 4 -13 16 -21 21 -21
13z"/>
<path d="M953 4035 c0 -8 4 -12 9 -9 5 3 6 10 3 15 -9 13 -12 11 -12 -6z"/>
<path d="M896 4012 c-3 -5 1 -9 9 -9 8 0 12 4 9 9 -3 4 -7 8 -9 8 -2 0 -6 -4
-9 -8z"/>
<path d="M5114 3930 c0 -27 2 -47 5 -44 7 7 9 94 1 94 -3 0 -6 -22 -6 -50z"/>
<path d="M846 3932 c-3 -5 1 -9 9 -9 8 0 12 4 9 9 -3 4 -7 8 -9 8 -2 0 -6 -4
-9 -8z"/>
<path d="M776 3908 c3 -4 11 -5 19 -1 21 7 19 12 -4 10 -11 0 -18 -5 -15 -9z"/>
<path d="M711 3857 c2 -1 13 -9 24 -17 19 -14 19 -14 6 3 -7 9 -18 17 -24 17
-6 0 -8 -1 -6 -3z"/>
<path d="M5113 3801 c0 -11 5 -18 9 -15 4 3 5 11 1 19 -7 21 -12 19 -10 -4z"/>
<path d="M655 3790 c-3 -5 -1 -10 4 -10 6 0 11 5 11 10 0 6 -2 10 -4 10 -3 0
-8 -4 -11 -10z"/>
<path d="M5119 3763 c-13 -16 -12 -17 4 -4 9 7 17 15 17 17 0 8 -8 3 -21 -13z"/>
<path d="M5155 3770 c-3 -5 -1 -10 4 -10 6 0 11 5 11 10 0 6 -2 10 -4 10 -3 0
-8 -4 -11 -10z"/>
<path d="M5110 3732 c0 -5 7 -9 15 -9 8 0 12 4 9 9 -3 4 -9 8 -15 8 -5 0 -9
-4 -9 -8z"/>
<path d="M590 3716 c0 -2 7 -7 16 -10 8 -3 12 -2 9 4 -6 10 -25 14 -25 6z"/>
<path d="M630 3709 c0 -5 5 -7 10 -4 6 3 10 8 10 11 0 2 -4 4 -10 4 -5 0 -10
-5 -10 -11z"/>
<path d="M535 3651 c-3 -5 -2 -12 3 -15 5 -3 9 1 9 9 0 17 -3 19 -12 6z"/>
<path d="M570 3649 c0 -5 5 -7 10 -4 6 3 10 8 10 11 0 2 -4 4 -10 4 -5 0 -10
-5 -10 -11z"/>
<path d="M526 3608 c3 -5 10 -6 15 -3 13 9 11 12 -6 12 -8 0 -12 -4 -9 -9z"/>
<path d="M500 3596 c0 -2 8 -10 18 -17 15 -13 16 -12 3 4 -13 16 -21 21 -21
13z"/>
<path d="M415 3551 c-3 -5 -2 -12 3 -15 5 -3 9 1 9 9 0 17 -3 19 -12 6z"/>
<path d="M424 3486 c-3 -8 -12 -12 -19 -10 -7 3 -15 1 -19 -4 -3 -5 4 -8 16
-7 17 1 50 35 33 35 -3 0 -8 -6 -11 -14z"/>
<path d="M350 3470 c0 -5 5 -10 11 -10 5 0 7 5 4 10 -3 6 -8 10 -11 10 -2 0
-4 -4 -4 -10z"/>
<path d="M5115 3459 c-4 -6 -5 -12 -2 -15 2 -3 7 2 10 11 7 17 1 20 -8 4z"/>
<path d="M309 3413 c-13 -16 -12 -17 4 -4 9 7 17 15 17 17 0 8 -8 3 -21 -13z"/>
<path d="M3926 3372 c-3 -5 1 -9 9 -9 8 0 15 4 15 9 0 4 -4 8 -9 8 -6 0 -12
-4 -15 -8z"/>
<path d="M3993 3361 c0 -11 5 -18 9 -15 4 3 5 11 1 19 -7 21 -12 19 -10 -4z"/>
<path d="M4020 3369 c0 -5 5 -7 10 -4 6 3 10 8 10 11 0 2 -4 4 -10 4 -5 0 -10
-5 -10 -11z"/>
<path d="M4090 3376 c0 -2 7 -7 16 -10 8 -3 12 -2 9 4 -6 10 -25 14 -25 6z"/>
<path d="M4131 3364 c0 -11 3 -14 6 -6 3 7 2 16 -1 19 -3 4 -6 -2 -5 -13z"/>
<path d="M4313 3361 c0 -11 5 -18 9 -15 4 3 5 11 1 19 -7 21 -12 19 -10 -4z"/>
<path d="M4340 3369 c0 -5 5 -7 10 -4 6 3 10 8 10 11 0 2 -4 4 -10 4 -5 0 -10
-5 -10 -11z"/>
<path d="M4410 3376 c0 -2 7 -7 16 -10 8 -3 12 -2 9 4 -6 10 -25 14 -25 6z"/>
<path d="M4451 3364 c0 -11 3 -14 6 -6 3 7 2 16 -1 19 -3 4 -6 -2 -5 -13z"/>
<path d="M4070 3346 c7 -7 13 -7 20 0 6 6 3 10 -10 10 -13 0 -16 -4 -10 -10z"/>
<path d="M4390 3346 c7 -7 13 -7 20 0 6 6 3 10 -10 10 -13 0 -16 -4 -10 -10z"/>
<path d="M4713 3337 c0 -8 6 -14 14 -14 9 0 10 4 2 14 -6 7 -12 13 -14 13 -1
0 -2 -6 -2 -13z"/>
<path d="M310 3332 c0 -5 7 -9 15 -9 8 0 12 4 9 9 -3 4 -9 8 -15 8 -5 0 -9 -4
-9 -8z"/>
<path d="M4016 3328 c3 -5 10 -6 15 -3 13 9 11 12 -6 12 -8 0 -12 -4 -9 -9z"/>
<path d="M4215 3330 c-3 -5 -1 -10 4 -10 6 0 11 5 11 10 0 6 -2 10 -4 10 -3 0
-8 -4 -11 -10z"/>
<path d="M4330 3328 c0 -4 4 -8 9 -8 6 0 12 4 15 8 3 5 -1 9 -9 9 -8 0 -15 -4
-15 -9z"/>
<path d="M4457 3325 c-4 -8 -3 -16 1 -19 4 -3 9 4 9 15 2 23 -3 25 -10 4z"/>
<path d="M4585 3329 c-3 -4 2 -6 10 -5 21 3 28 13 10 13 -9 0 -18 -4 -20 -8z"/>
<path d="M4676 3328 c3 -5 10 -6 15 -3 13 9 11 12 -6 12 -8 0 -12 -4 -9 -9z"/>
<path d="M3975 3321 c-3 -5 -2 -12 3 -15 5 -3 9 1 9 9 0 17 -3 19 -12 6z"/>
<path d="M4530 3310 c0 -5 5 -10 11 -10 5 0 7 5 4 10 -3 6 -8 10 -11 10 -2 0
-4 -4 -4 -10z"/>
<path d="M4656 3311 c-3 -5 2 -15 12 -22 15 -12 16 -12 5 2 -7 9 -10 19 -6 22
3 4 4 7 0 7 -3 0 -8 -4 -11 -9z"/>
<path d="M273 3295 c0 -8 4 -12 9 -9 5 3 6 10 3 15 -9 13 -12 11 -12 -6z"/>
<path d="M318 3293 c7 -3 16 -2 19 1 4 3 -2 6 -13 5 -11 0 -14 -3 -6 -6z"/>
<path d="M305 3270 c-3 -6 1 -7 9 -4 18 7 21 14 7 14 -6 0 -13 -4 -16 -10z"/>
<path d="M260 3256 c0 -2 8 -10 18 -17 15 -13 16 -12 3 4 -13 16 -21 21 -21
13z"/>
<path d="M330 3250 c0 -5 5 -10 10 -10 6 0 10 5 10 10 0 6 -4 10 -10 10 -5 0
-10 -4 -10 -10z"/>
<path d="M334 3222 c3 -6 -2 -13 -11 -15 -16 -4 -16 -5 -1 -6 21 -1 32 15 17
25 -7 4 -9 3 -5 -4z"/>
<path d="M270 3152 c0 -5 7 -9 15 -9 8 0 12 4 9 9 -3 4 -9 8 -15 8 -5 0 -9 -4
-9 -8z"/>
<path d="M318 3143 c7 -3 16 -2 19 1 4 3 -2 6 -13 5 -11 0 -14 -3 -6 -6z"/>
<path d="M315 3110 c-3 -6 1 -7 9 -4 18 7 21 14 7 14 -6 0 -13 -4 -16 -10z"/>
<path d="M333 3085 c0 -8 4 -12 9 -9 5 3 6 10 3 15 -9 13 -12 11 -12 -6z"/>
<path d="M260 3056 c0 -2 8 -10 18 -17 15 -13 16 -12 3 4 -13 16 -21 21 -21
13z"/>
<path d="M308 3023 c6 -2 10 -8 8 -12 -3 -4 5 -8 16 -8 20 -2 20 -1 2 12 -11
8 -23 14 -29 14 -5 0 -4 -3 3 -6z"/>
<path d="M286 2971 c-14 -15 -15 -21 -4 -27 7 -4 10 -3 5 1 -4 5 0 17 10 27 9
10 14 18 11 18 -3 0 -13 -9 -22 -19z"/>
<path d="M314 2959 c-3 -6 -1 -16 5 -22 9 -9 10 -7 5 7 -6 16 -4 18 10 13 10
-4 15 -3 11 3 -8 13 -22 13 -31 -1z"/>
<path d="M276 2888 c2 -4 14 -5 26 -3 32 7 32 13 -1 11 -16 0 -27 -4 -25 -8z"/>
<path d="M295 2859 c-4 -6 -5 -12 -2 -15 2 -3 7 2 10 11 7 17 1 20 -8 4z"/>
<path d="M300 2830 c-8 -5 -10 -10 -5 -10 6 0 17 5 25 10 8 5 11 10 5 10 -5 0
-17 -5 -25 -10z"/>
<path d="M270 2806 c0 -2 8 -10 18 -17 15 -13 16 -12 3 4 -13 16 -21 21 -21
13z"/>
<path d="M322 2774 c10 -10 20 -16 22 -13 3 3 -5 11 -17 18 -21 13 -21 12 -5
-5z"/>
<path d="M270 2771 c0 -6 4 -13 10 -16 6 -3 7 1 4 9 -7 18 -14 21 -14 7z"/>
<path d="M307 2749 c7 -7 15 -10 18 -7 3 3 -2 9 -12 12 -14 6 -15 5 -6 -5z"/>
<path d="M296 2721 c-3 -4 6 -6 19 -3 14 2 25 6 25 8 0 8 -39 4 -44 -5z"/>
<path d="M250 2710 c0 -5 5 -10 11 -10 5 0 7 5 4 10 -3 6 -8 10 -11 10 -2 0
-4 -4 -4 -10z"/>
<path d="M309 2687 c7 -7 14 -8 21 -1 6 6 2 10 -12 11 -16 2 -18 -1 -9 -10z"/>
<path d="M295 2661 c-3 -5 -2 -12 3 -15 5 -3 9 1 9 9 0 17 -3 19 -12 6z"/>
<path d="M310 2590 c0 -5 5 -10 10 -10 6 0 10 5 10 10 0 6 -4 10 -10 10 -5 0
-10 -4 -10 -10z"/>
<path d="M256 2537 c3 -10 9 -15 12 -12 3 3 0 11 -7 18 -10 9 -11 8 -5 -6z"/>
<path d="M313 2517 c0 -8 6 -14 14 -14 9 0 10 4 2 14 -6 7 -12 13 -14 13 -1 0
-2 -6 -2 -13z"/>
<path d="M284 2489 c-4 -7 -3 -9 4 -5 5 3 13 0 15 -6 4 -9 6 -10 6 -1 1 17
-16 25 -25 12z"/>
<path d="M316 2464 c-3 -9 -2 -23 2 -31 8 -13 10 -13 15 1 4 11 3 15 -4 10 -8
-4 -9 1 -4 15 7 24 0 29 -9 5z"/>
<path d="M296 2426 c4 -11 0 -14 -15 -11 -12 2 -19 0 -16 -5 7 -11 38 -6 42 7
2 6 -1 14 -6 18 -7 3 -8 0 -5 -9z"/>
<path d="M310 2390 c0 -5 5 -10 10 -10 6 0 10 5 10 10 0 6 -4 10 -10 10 -5 0
-10 -4 -10 -10z"/>
<path d="M295 2360 c-3 -6 1 -7 9 -4 18 7 21 14 7 14 -6 0 -13 -4 -16 -10z"/>
<path d="M330 2351 c0 -7 -5 -9 -12 -5 -7 5 -8 3 -3 -5 5 -9 10 -10 18 -2 6 6
8 14 4 18 -4 3 -7 1 -7 -6z"/>
<path d="M233 2325 c0 -8 4 -12 9 -9 5 3 6 10 3 15 -9 13 -12 11 -12 -6z"/>
<path d="M273 2323 c0 -11 7 -20 14 -20 10 0 10 4 1 16 -7 9 -13 18 -15 20 -1
2 -1 -5 0 -16z"/>
<path d="M4830 2331 c0 -6 4 -13 10 -16 6 -3 7 1 4 9 -7 18 -14 21 -14 7z"/>
<path d="M4977 2325 c-4 -8 -3 -16 1 -19 4 -3 9 4 9 15 2 23 -3 25 -10 4z"/>
<path d="M3976 2312 c-2 -4 -1 -14 4 -22 7 -11 9 -9 7 8 -1 24 -3 26 -11 14z"/>
<path d="M4013 2299 c-2 -23 3 -25 10 -4 4 8 3 16 -1 19 -4 3 -9 -4 -9 -15z"/>
<path d="M4136 2312 c-2 -4 -1 -14 4 -22 7 -11 9 -9 7 8 -1 24 -3 26 -11 14z"/>
<path d="M4173 2299 c-2 -23 3 -25 10 -4 4 8 3 16 -1 19 -4 3 -9 -4 -9 -15z"/>
<path d="M4296 2312 c-2 -4 -1 -14 4 -22 7 -11 9 -9 7 8 -1 24 -3 26 -11 14z"/>
<path d="M4333 2299 c-2 -23 3 -25 10 -4 4 8 3 16 -1 19 -4 3 -9 -4 -9 -15z"/>
<path d="M4456 2312 c-2 -4 -1 -14 4 -22 7 -11 9 -9 7 8 -1 24 -3 26 -11 14z"/>
<path d="M4575 2310 c-3 -5 -1 -10 4 -10 6 0 11 5 11 10 0 6 -2 10 -4 10 -3 0
-8 -4 -11 -10z"/>
<path d="M3936 2283 c-6 -14 -5 -15 5 -6 7 7 10 15 7 18 -3 3 -9 -2 -12 -12z"/>
<path d="M4053 2281 c0 -11 5 -18 9 -15 4 3 5 11 1 19 -7 21 -12 19 -10 -4z"/>
<path d="M4096 2283 c-6 -14 -5 -15 5 -6 7 7 10 15 7 18 -3 3 -9 -2 -12 -12z"/>
<path d="M4213 2281 c0 -11 5 -18 9 -15 4 3 5 11 1 19 -7 21 -12 19 -10 -4z"/>
<path d="M4256 2283 c-6 -14 -5 -15 5 -6 7 7 10 15 7 18 -3 3 -9 -2 -12 -12z"/>
<path d="M4373 2281 c0 -11 5 -18 9 -15 4 3 5 11 1 19 -7 21 -12 19 -10 -4z"/>
<path d="M4416 2283 c-6 -14 -5 -15 5 -6 7 7 10 15 7 18 -3 3 -9 -2 -12 -12z"/>
<path d="M4794 2288 c-4 -7 -4 -10 1 -6 4 4 15 2 24 -5 14 -11 14 -10 2 6 -16
20 -18 21 -27 5z"/>
<path d="M4856 2292 c-3 -5 1 -9 9 -9 8 0 12 4 9 9 -3 4 -7 8 -9 8 -2 0 -6 -4
-9 -8z"/>
<path d="M5110 2296 c0 -2 7 -7 16 -10 8 -3 12 -2 9 4 -6 10 -25 14 -25 6z"/>
<path d="M4508 2261 c3 -9 1 -12 -6 -7 -8 5 -10 2 -6 -9 4 -9 7 -15 8 -13 1 2
9 12 18 23 16 20 16 21 -1 21 -12 0 -17 -5 -13 -15z"/>
<path d="M4747 2263 c4 -11 2 -14 -5 -9 -8 5 -10 2 -6 -9 4 -9 7 -15 8 -13 1
2 7 10 14 19 10 14 10 18 -2 22 -11 4 -13 1 -9 -10z"/>
<path d="M4946 2272 c-3 -5 1 -9 9 -9 8 0 12 4 9 9 -3 4 -7 8 -9 8 -2 0 -6 -4
-9 -8z"/>
<path d="M3958 2263 c7 -3 16 -2 19 1 4 3 -2 6 -13 5 -11 0 -14 -3 -6 -6z"/>
<path d="M3986 2255 c-11 -8 -15 -15 -9 -15 6 0 16 7 23 15 16 19 11 19 -14 0z"/>
<path d="M4118 2263 c7 -3 16 -2 19 1 4 3 -2 6 -13 5 -11 0 -14 -3 -6 -6z"/>
<path d="M4146 2255 c-11 -8 -15 -15 -9 -15 6 0 16 7 23 15 16 19 11 19 -14 0z"/>
<path d="M4278 2263 c7 -3 16 -2 19 1 4 3 -2 6 -13 5 -11 0 -14 -3 -6 -6z"/>
<path d="M4306 2255 c-11 -8 -15 -15 -9 -15 6 0 16 7 23 15 16 19 11 19 -14 0z"/>
<path d="M4438 2263 c7 -3 16 -2 19 1 4 3 -2 6 -13 5 -11 0 -14 -3 -6 -6z"/>
<path d="M4588 2263 c7 -3 16 -2 19 1 4 3 -2 6 -13 5 -11 0 -14 -3 -6 -6z"/>
<path d="M4678 2263 c7 -3 16 -2 19 1 4 3 -2 6 -13 5 -11 0 -14 -3 -6 -6z"/>
<path d="M4850 2261 c0 -7 -4 -9 -10 -6 -6 4 -7 -1 -3 -11 6 -15 7 -15 15 1 6
9 7 19 4 22 -3 4 -6 1 -6 -6z"/>
<path d="M3931 2244 c0 -11 3 -14 6 -6 3 7 2 16 -1 19 -3 4 -6 -2 -5 -13z"/>
<path d="M4091 2244 c0 -11 3 -14 6 -6 3 7 2 16 -1 19 -3 4 -6 -2 -5 -13z"/>
<path d="M4251 2244 c0 -11 3 -14 6 -6 3 7 2 16 -1 19 -3 4 -6 -2 -5 -13z"/>
<path d="M4411 2244 c0 -11 3 -14 6 -6 3 7 2 16 -1 19 -3 4 -6 -2 -5 -13z"/>
<path d="M4460 2250 c-9 -6 -10 -10 -3 -10 6 0 15 5 18 10 8 12 4 12 -15 0z"/>
<path d="M4535 2249 c-4 -6 -5 -12 -2 -15 2 -3 7 2 10 11 7 17 1 20 -8 4z"/>
<path d="M4651 2244 c0 -11 3 -14 6 -6 3 7 2 16 -1 19 -3 4 -6 -2 -5 -13z"/>
<path d="M4775 2249 c-4 -6 -5 -12 -2 -15 2 -3 7 2 10 11 7 17 1 20 -8 4z"/>
<path d="M4921 2244 c0 -11 3 -14 6 -6 3 7 2 16 -1 19 -3 4 -6 -2 -5 -13z"/>
<path d="M5013 2243 c0 -9 4 -10 14 -2 7 6 13 12 13 14 0 1 -6 2 -13 2 -8 0
-14 -6 -14 -14z"/>
<path d="M317 2243 c-4 -3 -7 -11 -7 -17 0 -6 5 -5 12 2 6 6 9 14 7 17 -3 3
-9 2 -12 -2z"/>
<path d="M4960 2246 c0 -2 7 -7 16 -10 8 -3 12 -2 9 4 -6 10 -25 14 -25 6z"/>
<path d="M5177 2205 c-4 -8 -3 -16 1 -19 4 -3 9 4 9 15 2 23 -3 25 -10 4z"/>
<path d="M330 2176 c0 -2 7 -7 16 -10 8 -3 12 -2 9 4 -6 10 -25 14 -25 6z"/>
<path d="M5140 2176 c0 -2 8 -10 18 -17 15 -13 16 -12 3 4 -13 16 -21 21 -21
13z"/>
<path d="M5133 2135 c0 -8 4 -12 9 -9 5 3 6 10 3 15 -9 13 -12 11 -12 -6z"/>
<path d="M330 2131 c0 -6 4 -13 10 -16 6 -3 7 1 4 9 -7 18 -14 21 -14 7z"/>
<path d="M5100 2120 c-6 -11 -8 -20 -6 -20 3 0 10 9 16 20 6 11 8 20 6 20 -3
0 -10 -9 -16 -20z"/>
<path d="M396 2105 c-9 -26 -7 -32 5 -12 6 10 9 21 6 23 -2 3 -7 -2 -11 -11z"/>
<path d="M5150 2112 c0 -5 7 -9 15 -9 8 0 12 4 9 9 -3 4 -9 8 -15 8 -5 0 -9
-4 -9 -8z"/>
<path d="M276 2097 c3 -10 9 -15 12 -12 3 3 0 11 -7 18 -10 9 -11 8 -5 -6z"/>
<path d="M5130 2100 c0 -5 -5 -9 -11 -7 -6 1 -14 -5 -16 -13 -4 -12 -3 -12 5
-2 5 8 13 13 18 12 5 -1 10 3 12 9 2 6 1 11 -2 11 -3 0 -6 -4 -6 -10z"/>
<path d="M315 2091 c-3 -5 -2 -12 3 -15 5 -3 9 1 9 9 0 17 -3 19 -12 6z"/>
<path d="M5210 2089 c0 -5 5 -7 10 -4 6 3 10 8 10 11 0 2 -4 4 -10 4 -5 0 -10
-5 -10 -11z"/>
<path d="M443 2083 c-7 -2 -13 -9 -13 -15 0 -6 6 -6 15 2 8 6 20 8 26 4 8 -4
9 -3 5 4 -8 13 -13 14 -33 5z"/>
<path d="M5133 2060 c-3 -10 -13 -22 -22 -25 -10 -3 -18 -13 -18 -21 0 -15 1
-15 12 0 7 8 15 13 18 10 3 -4 9 5 13 20 3 14 11 23 17 19 6 -3 7 -1 3 5 -10
17 -17 15 -23 -8z"/>
<path d="M335 2050 c-3 -5 -1 -10 4 -10 6 0 11 5 11 10 0 6 -2 10 -4 10 -3 0
-8 -4 -11 -10z"/>
<path d="M411 2044 c0 -11 3 -14 6 -6 3 7 2 16 -1 19 -3 4 -6 -2 -5 -13z"/>
<path d="M454 2043 c2 -9 8 -19 14 -21 7 -2 9 -9 5 -15 -3 -7 3 -4 15 6 11 11
18 25 15 33 -6 16 -23 19 -23 4 0 -5 5 -10 11 -10 5 0 8 -4 4 -10 -9 -14 -34
0 -28 16 3 8 1 14 -5 14 -6 0 -9 -8 -8 -17z"/>
<path d="M5140 2016 c0 -2 7 -6 15 -10 8 -3 15 -1 15 4 0 6 -7 10 -15 10 -8 0
-15 -2 -15 -4z"/>
<path d="M5206 2012 c-3 -5 1 -9 9 -9 8 0 12 4 9 9 -3 4 -7 8 -9 8 -2 0 -6 -4
-9 -8z"/>
<path d="M5105 1994 c-11 -8 -14 -14 -6 -14 7 0 11 -6 8 -14 -7 -17 38 -50 56
-42 7 2 4 5 -6 5 -10 1 -15 6 -12 11 4 6 12 7 18 3 8 -5 8 -2 0 9 -7 8 -10 18
-6 21 3 4 1 7 -6 7 -7 0 -11 -7 -8 -15 4 -8 2 -17 -3 -20 -9 -6 -14 8 -11 28
0 4 -4 7 -10 7 -5 0 -8 4 -4 10 3 5 12 7 20 3 8 -3 15 -3 15 0 0 13 -28 13
-45 1z"/>
<path d="M537 1986 c-4 -10 0 -12 14 -9 11 3 19 0 19 -6 0 -7 -4 -10 -8 -7 -4
2 -8 -4 -9 -14 -2 -22 13 -35 22 -20 8 13 35 13 35 0 0 -5 -6 -10 -14 -10 -8
0 -18 -5 -22 -12 -5 -8 -2 -9 12 -4 10 5 25 9 32 9 18 1 16 3 -28 47 -45 45
-46 45 -53 26z m35 -48 c-7 -7 -12 -8 -12 -2 0 14 12 26 19 19 2 -3 -1 -11 -7
-17z"/>
<path d="M517 1959 c7 -7 15 -10 18 -7 3 3 -2 9 -12 12 -14 6 -15 5 -6 -5z"/>
<path d="M5193 1963 c4 -6 3 -13 -3 -15 -6 -2 0 -9 12 -17 22 -13 22 -13 8 4
-8 10 -13 20 -12 22 2 3 0 8 -4 11 -4 4 -4 2 -1 -5z"/>
<path d="M470 1952 c0 -5 8 -16 18 -25 15 -14 19 -14 19 -3 0 8 -3 15 -6 14
-19 -2 -24 4 -11 12 13 8 12 10 -2 10 -10 0 -18 -4 -18 -8z"/>
<path d="M455 1910 c3 -5 8 -10 11 -10 2 0 4 5 4 10 0 6 -5 10 -11 10 -5 0 -7
-4 -4 -10z"/>
<path d="M535 1911 c-6 -11 13 -26 22 -17 4 3 1 6 -6 6 -7 0 -9 5 -6 10 3 6 4
10 1 10 -3 0 -7 -4 -11 -9z"/>
<path d="M5185 1911 c4 -8 2 -17 -6 -22 -9 -6 -10 -9 -2 -9 19 0 27 21 13 33
-10 9 -11 9 -5 -2z"/>
<path d="M605 1891 c3 -6 -3 -14 -12 -20 -17 -10 -17 -10 0 -11 9 0 17 2 17 4
0 2 3 11 6 20 3 9 1 16 -6 16 -6 0 -9 -4 -5 -9z"/>
<path d="M547 1869 c7 -7 15 -10 18 -7 3 3 -2 9 -12 12 -14 6 -15 5 -6 -5z"/>
<path d="M5196 1863 c-6 -14 -5 -15 5 -6 7 7 10 15 7 18 -3 3 -9 -2 -12 -12z"/>
<path d="M5255 1870 c-3 -5 -1 -10 4 -10 6 0 11 5 11 10 0 6 -2 10 -4 10 -3 0
-8 -4 -11 -10z"/>
<path d="M535 1830 c3 -5 8 -10 11 -10 2 0 4 5 4 10 0 6 -5 10 -11 10 -5 0 -7
-4 -4 -10z"/>
<path d="M616 1827 c3 -10 9 -15 12 -12 3 3 0 11 -7 18 -10 9 -11 8 -5 -6z"/>
<path d="M705 1821 c1 -11 16 -31 33 -46 18 -15 32 -32 32 -38 0 -6 -10 -1
-23 11 -13 12 -27 19 -30 15 -4 -3 -7 -1 -7 5 0 6 -9 10 -19 9 -11 0 -17 -5
-14 -10 3 -4 8 -6 11 -3 3 3 11 1 19 -5 7 -6 13 -8 13 -5 0 4 6 1 14 -6 8 -8
10 -15 4 -19 -6 -4 1 -6 14 -6 14 0 30 7 36 17 9 14 7 17 -6 16 -9 0 -16 5
-14 12 1 6 -3 11 -9 10 -6 -2 -14 3 -17 11 -3 9 0 11 8 6 8 -5 11 -4 7 3 -4 5
-17 8 -30 5 -15 -3 -18 -2 -9 5 11 7 10 11 -1 20 -11 9 -13 8 -12 -7z"/>
<path d="M5177 1833 c-2 -5 -3 -16 -1 -26 2 -13 -2 -17 -12 -13 -8 3 -14 1
-14 -5 0 -6 8 -9 18 -7 9 2 17 12 17 23 -1 11 4 23 10 27 6 5 6 8 -2 8 -6 0
-14 -3 -16 -7z"/>
<path d="M5120 1820 c-7 -4 -10 -13 -6 -19 5 -7 1 -9 -9 -5 -12 5 -14 1 -11
-17 2 -14 9 -22 17 -20 8 2 25 3 39 3 25 -1 25 -1 3 8 -27 11 -29 25 -7 38 14
8 14 10 2 15 -8 3 -21 2 -28 -3z m10 -45 c0 -2 -6 -5 -13 -8 -8 -3 -14 1 -14
8 0 7 6 11 14 8 7 -3 13 -6 13 -8z"/>
<path d="M5234 1810 c0 -13 4 -16 10 -10 7 7 7 13 0 20 -6 6 -10 3 -10 -10z"/>
<path d="M599 1783 c-13 -16 -12 -17 4 -4 9 7 17 15 17 17 0 8 -8 3 -21 -13z"/>
<path d="M5200 1785 c-7 -8 -9 -15 -4 -15 4 0 -1 -7 -12 -16 -18 -14 -18 -15
4 -4 13 7 21 14 18 17 -3 4 -1 12 5 20 6 7 9 13 6 13 -2 0 -10 -7 -17 -15z"/>
<path d="M5255 1750 c-3 -5 -1 -10 4 -10 6 0 11 5 11 10 0 6 -2 10 -4 10 -3 0
-8 -4 -11 -10z"/>
<path d="M5120 1740 c-8 -5 -11 -13 -6 -17 5 -4 11 -2 13 5 3 6 9 12 14 12 6
0 7 -4 4 -10 -3 -5 -1 -10 5 -10 13 0 8 22 -6 27 -5 1 -16 -2 -24 -7z"/>
<path d="M707 1709 c7 -7 15 -10 18 -7 3 3 -2 9 -12 12 -14 6 -15 5 -6 -5z"/>
<path d="M5094 1698 c3 -13 5 -25 5 -27 1 -2 8 2 16 9 22 18 18 -3 -4 -27 -24
-26 -21 -59 5 -55 15 3 16 1 5 -12 -7 -8 -10 -20 -6 -25 3 -7 0 -8 -10 -5 -12
5 -14 1 -11 -17 2 -14 9 -22 17 -20 8 2 25 4 39 4 16 -1 18 1 7 4 -9 2 -15 8
-12 13 3 5 13 7 23 4 14 -5 14 -4 2 4 -10 8 -18 8 -27 0 -9 -7 -13 -7 -13 0 0
6 12 20 28 32 15 12 20 21 12 20 -27 -4 -40 0 -40 11 0 6 7 9 15 6 8 -4 17 -2
20 3 3 5 13 7 23 4 10 -4 13 -2 7 3 -6 4 -11 17 -10 28 0 11 -7 21 -15 21 -32
3 -34 6 -15 14 17 8 18 9 3 11 -34 3 -36 4 -44 12 -14 14 -24 7 -20 -15z m21
3 c3 -5 2 -12 -3 -15 -5 -3 -9 1 -9 9 0 17 3 19 12 6z m61 -45 c-3 -21 -17
-36 -27 -30 -6 3 -19 -2 -29 -11 -21 -19 -22 -5 -2 31 12 22 61 31 58 10z
m-36 -81 c-7 -9 -15 -13 -17 -11 -7 7 7 26 19 26 6 0 6 -6 -2 -15z m-10 -40
c0 -2 -6 -5 -13 -8 -8 -3 -14 1 -14 8 0 7 6 11 14 8 7 -3 13 -6 13 -8z"/>
<path d="M5140 1650 c0 -5 5 -10 11 -10 5 0 7 5 4 10 -3 6 -8 10 -11 10 -2 0
-4 -4 -4 -10z"/>
<path d="M5182 1707 c10 -8 15 -16 13 -19 -3 -3 3 -11 12 -19 16 -13 17 -12 5
3 -9 12 -10 17 -1 20 6 2 -2 9 -17 16 -25 11 -27 10 -12 -1z"/>
<path d="M748 1703 c7 -3 16 -2 19 1 4 3 -2 6 -13 5 -11 0 -14 -3 -6 -6z"/>
<path d="M830 1701 c-8 -6 -19 -7 -25 -4 -5 4 -7 3 -3 -2 4 -4 3 -16 -3 -26
-7 -13 -6 -25 1 -37 9 -15 10 -14 5 5 -5 17 1 29 21 48 28 26 30 31 4 16z"/>
<path d="M5250 1691 c0 -6 4 -13 10 -16 6 -3 7 1 4 9 -7 18 -14 21 -14 7z"/>
<path d="M756 1677 c3 -10 9 -15 12 -12 3 3 0 11 -7 18 -10 9 -11 8 -5 -6z"/>
<path d="M844 1668 c10 -6 22 -6 26 -2 5 5 -3 10 -18 11 -22 1 -24 0 -8 -9z"/>
<path d="M820 1650 c0 -5 5 -10 10 -10 6 0 10 5 10 10 0 6 -4 10 -10 10 -5 0
-10 -4 -10 -10z"/>
<path d="M869 1646 c-14 -10 -15 -15 -4 -29 6 -9 15 -14 18 -10 11 10 8 25 -3
18 -5 -3 -10 -2 -10 4 0 5 6 11 13 14 6 2 10 7 7 10 -3 3 -12 0 -21 -7z"/>
<path d="M767 1629 c7 -7 15 -10 18 -7 3 3 -2 9 -12 12 -14 6 -15 5 -6 -5z"/>
<path d="M5225 1610 c10 -11 20 -20 23 -20 3 0 -3 9 -13 20 -10 11 -20 20 -23
20 -3 0 3 -9 13 -20z"/>
<path d="M824 1604 c-18 -14 -18 -15 4 -4 12 6 22 13 22 15 0 8 -5 6 -26 -11z"/>
<path d="M5196 1597 c3 -10 9 -15 12 -12 3 3 0 11 -7 18 -10 9 -11 8 -5 -6z"/>
<path d="M845 1589 c-4 -6 -4 -13 -1 -16 3 -4 6 -1 6 6 0 7 5 9 12 5 7 -4 8
-3 4 4 -9 15 -13 15 -21 1z"/>
<path d="M947 1589 c7 -7 15 -10 18 -7 3 3 -2 9 -12 12 -14 6 -15 5 -6 -5z"/>
<path d="M776 1572 c-3 -5 1 -9 9 -9 8 0 12 4 9 9 -3 4 -7 8 -9 8 -2 0 -6 -4
-9 -8z"/>
<path d="M890 1570 c8 -5 20 -10 25 -10 6 0 3 5 -5 10 -8 5 -19 10 -25 10 -5
0 -3 -5 5 -10z"/>
<path d="M5170 1570 c0 -5 5 -10 10 -10 6 0 10 5 10 10 0 6 -4 10 -10 10 -5 0
-10 -4 -10 -10z"/>
<path d="M950 1561 c0 -12 32 -24 39 -14 4 4 5 7 2 6 -2 -1 -12 2 -22 8 -11 6
-19 6 -19 0z"/>
<path d="M839 1543 c-13 -16 -12 -17 4 -4 9 7 17 15 17 17 0 8 -8 3 -21 -13z"/>
<path d="M870 1551 c0 -5 8 -15 18 -22 15 -12 16 -12 5 2 -7 9 -10 19 -6 22 3
4 1 7 -5 7 -7 0 -12 -4 -12 -9z"/>
<path d="M5196 1543 c-6 -14 -5 -15 5 -6 7 7 10 15 7 18 -3 3 -9 -2 -12 -12z"/>
<path d="M5255 1550 c-3 -5 -1 -10 4 -10 6 0 11 5 11 10 0 6 -2 10 -4 10 -3 0
-8 -4 -11 -10z"/>
<path d="M950 1530 c0 -6 7 -10 15 -10 8 0 15 2 15 4 0 2 -7 6 -15 10 -8 3
-15 1 -15 -4z"/>
<path d="M853 1515 c0 -8 4 -12 9 -9 5 3 6 10 3 15 -9 13 -12 11 -12 -6z"/>
<path d="M910 1526 c0 -3 9 -10 20 -16 11 -6 20 -8 20 -6 0 3 -9 10 -20 16
-11 6 -20 8 -20 6z"/>
<path d="M5177 1513 c-2 -5 -3 -16 -1 -26 2 -13 -2 -17 -12 -13 -8 3 -14 1
-14 -5 0 -6 8 -9 18 -7 9 2 17 12 17 23 -1 11 4 23 10 27 6 5 6 8 -2 8 -6 0
-14 -3 -16 -7z"/>
<path d="M894 1496 c1 -8 5 -18 8 -22 4 -3 5 1 4 10 -1 8 -5 18 -8 22 -4 3 -5
-1 -4 -10z"/>
<path d="M976 1495 c-3 -8 -1 -15 4 -15 6 0 10 7 10 15 0 8 -2 15 -4 15 -2 0
-6 -7 -10 -15z"/>
<path d="M1030 1500 c-8 -5 -18 -6 -24 -3 -5 3 -6 1 -2 -5 3 -6 -2 -15 -11
-21 -16 -9 -16 -10 -2 -11 9 0 19 7 23 15 3 8 11 15 18 15 9 0 9 -3 0 -12 -7
-7 -11 -21 -11 -32 1 -21 1 -21 6 -1 3 11 12 27 20 37 16 18 4 31 -17 18z"/>
<path d="M5120 1500 c-7 -4 -10 -13 -6 -19 5 -7 1 -9 -9 -5 -12 5 -14 1 -11
-17 2 -14 9 -22 17 -20 8 2 25 3 39 3 25 -1 25 -1 3 8 -27 11 -29 25 -7 38 14
8 14 10 2 15 -8 3 -21 2 -28 -3z m10 -45 c0 -2 -6 -5 -13 -8 -8 -3 -14 1 -14
8 0 7 6 11 14 8 7 -3 13 -6 13 -8z"/>
<path d="M5239 1508 c-5 -18 -6 -38 -1 -34 7 8 12 36 6 36 -2 0 -4 -1 -5 -2z"/>
<path d="M5200 1465 c-7 -8 -9 -15 -4 -15 4 0 -1 -7 -12 -16 -18 -14 -18 -15
4 -4 13 7 21 14 18 17 -3 4 -1 12 5 20 6 7 9 13 6 13 -2 0 -10 -7 -17 -15z"/>
<path d="M930 1466 c0 -2 8 -10 18 -17 15 -13 16 -12 3 4 -13 16 -21 21 -21
13z"/>
<path d="M1049 1468 c-6 -18 -3 -46 3 -42 5 4 7 13 4 21 -5 11 -2 13 9 9 9 -3
13 -2 10 4 -5 9 -24 14 -26 8z"/>
<path d="M1080 1430 c20 -13 33 -13 25 0 -3 6 -14 10 -23 10 -15 0 -15 -2 -2
-10z"/>
<path d="M5255 1430 c-3 -5 -1 -10 4 -10 6 0 11 5 11 10 0 6 -2 10 -4 10 -3 0
-8 -4 -11 -10z"/>
<path d="M5120 1420 c-8 -5 -11 -13 -6 -17 5 -4 11 -2 13 5 3 6 9 12 14 12 6
0 7 -4 4 -10 -3 -5 -1 -10 5 -10 13 0 8 22 -6 27 -5 1 -16 -2 -24 -7z"/>
<path d="M950 1411 c0 -6 4 -13 10 -16 6 -3 7 1 4 9 -7 18 -14 21 -14 7z"/>
<path d="M1055 1409 c-4 -6 -4 -13 -1 -16 3 -4 6 -1 6 5 0 7 4 12 10 12 5 0 7
-8 3 -17 -5 -14 -3 -15 7 -6 7 6 9 16 6 22 -9 14 -23 14 -31 0z"/>
<path d="M5094 1378 c3 -13 5 -25 5 -27 1 -2 8 2 16 9 22 18 18 -3 -4 -27 -24
-26 -21 -59 5 -55 15 3 16 1 5 -12 -7 -8 -10 -20 -6 -25 3 -7 0 -8 -10 -5 -12
5 -14 1 -11 -17 2 -14 9 -22 17 -20 8 2 25 4 39 4 16 -1 18 1 7 4 -9 2 -15 8
-12 13 3 5 13 7 23 4 14 -5 14 -4 2 4 -10 8 -18 8 -27 0 -9 -7 -13 -7 -13 0 0
6 12 20 28 32 15 12 20 21 12 20 -27 -4 -40 0 -40 11 0 6 7 9 15 6 8 -4 17 -2
20 3 3 5 13 7 23 4 10 -4 13 -2 7 3 -6 4 -11 17 -10 28 0 11 -7 21 -15 21 -32
3 -34 6 -15 14 17 8 18 9 3 11 -34 3 -36 4 -44 12 -14 14 -24 7 -20 -15z m21
3 c3 -5 2 -12 -3 -15 -5 -3 -9 1 -9 9 0 17 3 19 12 6z m61 -45 c-3 -21 -17
-36 -27 -30 -6 3 -19 -2 -29 -11 -21 -19 -22 -5 -2 31 12 22 61 31 58 10z
m-36 -81 c-7 -9 -15 -13 -17 -11 -7 7 7 26 19 26 6 0 6 -6 -2 -15z m-10 -40
c0 -2 -6 -5 -13 -8 -8 -3 -14 1 -14 8 0 7 6 11 14 8 7 -3 13 -6 13 -8z"/>
<path d="M5140 1330 c0 -5 5 -10 11 -10 5 0 7 5 4 10 -3 6 -8 10 -11 10 -2 0
-4 -4 -4 -10z"/>
<path d="M5182 1387 c10 -8 15 -16 13 -19 -3 -3 3 -11 12 -19 16 -13 17 -12 5
3 -9 12 -10 17 -1 20 6 2 -2 9 -17 16 -25 11 -27 10 -12 -1z"/>
<path d="M1041 1366 c-9 -11 -9 -16 1 -22 7 -4 10 -4 6 1 -4 4 -3 14 3 22 6 7
9 13 6 13 -2 0 -10 -6 -16 -14z"/>
<path d="M1085 1370 c-3 -6 1 -7 9 -4 18 7 21 14 7 14 -6 0 -13 -4 -16 -10z"/>
<path d="M5250 1371 c0 -6 4 -13 10 -16 6 -3 7 1 4 9 -7 18 -14 21 -14 7z"/>
<path d="M1154 1338 c-3 -5 -3 -12 0 -15 3 -4 6 0 6 8 1 8 7 3 15 -11 7 -14
17 -25 22 -25 14 1 53 -38 47 -47 -3 -4 0 -8 5 -8 15 0 14 13 -1 29 -11 11
-10 13 5 8 15 -6 16 -4 6 14 -6 12 -17 18 -26 15 -8 -3 -24 1 -36 9 -20 14
-16 20 8 15 6 -1 7 2 2 6 -11 11 -47 12 -53 2z m96 -42 c0 -3 -4 -8 -10 -11
-5 -3 -10 -1 -10 4 0 6 5 11 10 11 6 0 10 -2 10 -4z"/>
<path d="M1107 1309 c7 -7 15 -10 18 -7 3 3 -2 9 -12 12 -14 6 -15 5 -6 -5z"/>
<path d="M1069 1293 c-13 -16 -12 -17 4 -4 9 7 17 15 17 17 0 8 -8 3 -21 -13z"/>
<path d="M1155 1300 c3 -5 8 -10 11 -10 2 0 4 5 4 10 0 6 -5 10 -11 10 -5 0
-7 -4 -4 -10z"/>
<path d="M5225 1290 c10 -11 20 -20 23 -20 3 0 -3 9 -13 20 -10 11 -20 20 -23
20 -3 0 3 -9 13 -20z"/>
<path d="M5196 1277 c3 -10 9 -15 12 -12 3 3 0 11 -7 18 -10 9 -11 8 -5 -6z"/>
<path d="M1201 1252 c-1 -15 -5 -21 -13 -16 -6 4 -8 3 -5 -4 8 -12 32 -10 44
3 4 4 3 5 -4 1 -7 -4 -13 2 -16 16 l-4 23 -2 -23z"/>
<path d="M1107 1249 c7 -7 15 -10 18 -7 3 3 -2 9 -12 12 -14 6 -15 5 -6 -5z"/>
<path d="M5170 1250 c0 -5 5 -10 10 -10 6 0 10 5 10 10 0 6 -4 10 -10 10 -5 0
-10 -4 -10 -10z"/>
<path d="M1155 1231 c-3 -5 -2 -12 3 -15 5 -3 9 1 9 9 0 17 -3 19 -12 6z"/>
<path d="M5196 1223 c-6 -14 -5 -15 5 -6 7 7 10 15 7 18 -3 3 -9 -2 -12 -12z"/>
<path d="M5255 1230 c-3 -5 -1 -10 4 -10 6 0 11 5 11 10 0 6 -2 10 -4 10 -3 0
-8 -4 -11 -10z"/>
<path d="M1176 1188 c3 -5 10 -6 15 -3 13 9 11 12 -6 12 -8 0 -12 -4 -9 -9z"/>
<path d="M5177 1193 c-2 -5 -3 -16 -1 -26 2 -13 -2 -17 -12 -13 -8 3 -14 1
-14 -5 0 -6 8 -9 18 -7 9 2 17 12 17 23 -1 11 4 23 10 27 6 5 6 8 -2 8 -6 0
-14 -3 -16 -7z"/>
<path d="M1213 1175 c0 -8 4 -12 9 -9 5 3 6 10 3 15 -9 13 -12 11 -12 -6z"/>
<path d="M5120 1180 c-7 -4 -10 -13 -6 -19 5 -7 1 -9 -9 -5 -12 5 -14 1 -11
-17 2 -14 9 -22 17 -20 8 2 25 3 39 3 25 -1 25 -1 3 8 -27 11 -29 25 -7 38 14
8 14 10 2 15 -8 3 -21 2 -28 -3z m10 -45 c0 -2 -6 -5 -13 -8 -8 -3 -14 1 -14
8 0 7 6 11 14 8 7 -3 13 -6 13 -8z"/>
<path d="M5239 1188 c-5 -18 -6 -38 -1 -34 7 8 12 36 6 36 -2 0 -4 -1 -5 -2z"/>
<path d="M1265 1170 c-3 -6 1 -7 9 -4 18 7 21 14 7 14 -6 0 -13 -4 -16 -10z"/>
<path d="M5200 1145 c-7 -8 -9 -15 -4 -15 4 0 -1 -7 -12 -16 -18 -14 -18 -15
4 -4 13 7 21 14 18 17 -3 4 -1 12 5 20 6 7 9 13 6 13 -2 0 -10 -7 -17 -15z"/>
<path d="M1249 1133 c-13 -16 -12 -17 4 -4 16 13 21 21 13 21 -2 0 -10 -8 -17
-17z"/>
<path d="M1276 1132 c-3 -5 1 -9 9 -9 8 0 12 4 9 9 -3 4 -7 8 -9 8 -2 0 -6 -4
-9 -8z"/>
<path d="M1302 1111 c-9 -5 -4 -8 16 -7 17 1 28 4 25 9 -6 9 -25 9 -41 -2z"/>
<path d="M5255 1110 c-3 -5 -1 -10 4 -10 6 0 11 5 11 10 0 6 -2 10 -4 10 -3 0
-8 -4 -11 -10z"/>
<path d="M5120 1100 c-8 -5 -11 -13 -6 -17 5 -4 11 -2 13 5 3 6 9 12 14 12 6
0 7 -4 4 -10 -3 -5 -1 -10 5 -10 13 0 8 22 -6 27 -5 1 -16 -2 -24 -7z"/>
<path d="M1320 1096 c0 -2 8 -10 18 -17 15 -13 16 -12 3 4 -13 16 -21 21 -21
13z"/>
<path d="M1295 1070 c3 -5 8 -10 11 -10 2 0 4 5 4 10 0 6 -5 10 -11 10 -5 0
-7 -4 -4 -10z"/>
<path d="M5094 1058 c3 -13 5 -25 5 -27 1 -2 8 2 16 9 22 18 18 -3 -4 -27 -24
-26 -21 -59 5 -55 15 3 16 1 5 -12 -7 -8 -10 -20 -6 -25 3 -7 0 -8 -10 -5 -12
5 -14 1 -11 -17 2 -14 9 -22 17 -20 8 2 25 4 39 4 16 -1 18 1 7 4 -9 2 -15 8
-12 13 3 5 13 7 23 4 14 -5 14 -4 2 4 -10 8 -18 8 -27 0 -9 -7 -13 -7 -13 0 0
6 12 20 28 32 15 12 20 21 12 20 -27 -4 -40 0 -40 11 0 6 7 9 15 6 8 -4 17 -2
20 3 3 5 13 7 23 4 10 -4 13 -2 7 3 -6 4 -11 17 -10 28 0 11 -7 21 -15 21 -32
3 -34 6 -15 14 17 8 18 9 3 11 -34 3 -36 4 -44 12 -14 14 -24 7 -20 -15z m21
3 c3 -5 2 -12 -3 -15 -5 -3 -9 1 -9 9 0 17 3 19 12 6z m61 -45 c-3 -21 -17
-36 -27 -30 -6 3 -19 -2 -29 -11 -21 -19 -22 -5 -2 31 12 22 61 31 58 10z
m-36 -81 c-7 -9 -15 -13 -17 -11 -7 7 7 26 19 26 6 0 6 -6 -2 -15z m-10 -40
c0 -2 -6 -5 -13 -8 -8 -3 -14 1 -14 8 0 7 6 11 14 8 7 -3 13 -6 13 -8z"/>
<path d="M5140 1010 c0 -5 5 -10 11 -10 5 0 7 5 4 10 -3 6 -8 10 -11 10 -2 0
-4 -4 -4 -10z"/>
<path d="M5182 1067 c10 -8 15 -16 13 -19 -3 -3 3 -11 12 -19 16 -13 17 -12 5
3 -9 12 -10 17 -1 20 6 2 -2 9 -17 16 -25 11 -27 10 -12 -1z"/>
<path d="M1324 1052 c4 -3 14 -7 22 -8 9 -1 13 0 10 4 -4 3 -14 7 -22 8 -9 1
-13 0 -10 -4z"/>
<path d="M1420 1056 c0 -2 7 -6 15 -10 8 -3 15 -1 15 4 0 6 -7 10 -15 10 -8 0
-15 -2 -15 -4z"/>
<path d="M5250 1051 c0 -6 4 -13 10 -16 6 -3 7 1 4 9 -7 18 -14 21 -14 7z"/>
<path d="M1401 1043 c-1 -17 16 -25 25 -12 4 7 3 9 -4 5 -5 -3 -13 0 -15 6 -4
9 -6 10 -6 1z"/>
<path d="M1355 1010 c3 -5 8 -10 11 -10 2 0 4 5 4 10 0 6 -5 10 -11 10 -5 0
-7 -4 -4 -10z"/>
<path d="M1433 1005 c0 -7 6 -11 14 -8 7 3 13 6 13 8 0 2 -6 5 -13 8 -8 3 -14
-1 -14 -8z"/>
<path d="M1475 986 c3 -10 1 -24 -5 -31 -7 -8 -4 -11 10 -10 11 1 22 4 25 8 3
4 2 5 -2 2 -4 -3 -13 7 -20 22 -7 16 -11 20 -8 9z"/>
<path d="M5225 970 c10 -11 20 -20 23 -20 3 0 -3 9 -13 20 -10 11 -20 20 -23
20 -3 0 3 -9 13 -20z"/>
<path d="M5196 957 c3 -10 9 -15 12 -12 3 3 0 11 -7 18 -10 9 -11 8 -5 -6z"/>
<path d="M1415 950 c3 -5 8 -10 11 -10 2 0 4 5 4 10 0 6 -5 10 -11 10 -5 0 -7
-4 -4 -10z"/>
<path d="M1510 930 c0 -5 9 -14 20 -20 11 -6 20 -9 20 -8 0 2 -9 11 -20 21
-11 9 -20 13 -20 7z"/>
<path d="M1530 936 c0 -2 7 -7 16 -10 8 -3 12 -2 9 4 -6 10 -25 14 -25 6z"/>
<path d="M5170 930 c0 -5 5 -10 10 -10 6 0 10 5 10 10 0 6 -4 10 -10 10 -5 0
-10 -4 -10 -10z"/>
<path d="M5196 903 c-6 -14 -5 -15 5 -6 7 7 10 15 7 18 -3 3 -9 -2 -12 -12z"/>
<path d="M5255 910 c-3 -5 -1 -10 4 -10 6 0 11 5 11 10 0 6 -2 10 -4 10 -3 0
-8 -4 -11 -10z"/>
<path d="M1561 905 c0 -5 3 -16 8 -23 7 -11 9 -10 14 3 4 9 3 14 -2 10 -5 -3
-12 1 -14 7 -3 7 -6 9 -6 3z"/>
<path d="M1645 881 c3 -5 -5 -13 -16 -16 -20 -7 -21 -8 -5 -17 10 -5 20 -7 23
-4 4 3 0 6 -8 6 -8 1 -3 7 10 14 20 11 21 14 7 19 -10 4 -14 3 -11 -2z"/>
<path d="M5177 873 c-2 -5 -3 -16 -1 -26 2 -13 -2 -17 -12 -13 -8 3 -14 1 -14
-5 0 -6 8 -9 18 -7 9 2 17 12 17 23 -1 11 4 23 10 27 6 5 6 8 -2 8 -6 0 -14
-3 -16 -7z"/>
<path d="M5120 860 c-7 -4 -10 -13 -6 -19 5 -7 1 -9 -9 -5 -12 5 -14 1 -11
-17 2 -14 9 -22 17 -20 8 2 25 3 39 3 25 -1 25 -1 3 8 -27 11 -29 25 -7 38 14
8 14 10 2 15 -8 3 -21 2 -28 -3z m10 -45 c0 -2 -6 -5 -13 -8 -8 -3 -14 1 -14
8 0 7 6 11 14 8 7 -3 13 -6 13 -8z"/>
<path d="M5239 868 c-5 -18 -6 -38 -1 -34 7 8 12 36 6 36 -2 0 -4 -1 -5 -2z"/>
<path d="M1575 839 c-4 -6 -5 -12 -2 -15 2 -3 7 2 10 11 7 17 1 20 -8 4z"/>
<path d="M1600 829 c-12 -9 -12 -10 4 -5 16 5 17 2 12 -21 -5 -27 -5 -27 6 -5
14 27 0 46 -22 31z"/>
<path d="M5200 825 c-7 -8 -9 -15 -4 -15 4 0 -1 -7 -12 -16 -18 -14 -18 -15 4
-4 13 7 21 14 18 17 -3 4 -1 12 5 20 6 7 9 13 6 13 -2 0 -10 -7 -17 -15z"/>
<path d="M1516 817 c3 -10 9 -15 12 -12 3 3 0 11 -7 18 -10 9 -11 8 -5 -6z"/>
<path d="M1650 815 c0 -8 4 -15 10 -15 5 0 7 7 4 15 -4 8 -8 15 -10 15 -2 0
-4 -7 -4 -15z"/>
<path d="M5255 790 c-3 -5 -1 -10 4 -10 6 0 11 5 11 10 0 6 -2 10 -4 10 -3 0
-8 -4 -11 -10z"/>
<path d="M1676 775 c10 -8 23 -15 28 -15 6 0 1 7 -10 15 -10 8 -23 15 -28 15
-6 0 -1 -7 10 -15z"/>
<path d="M5120 780 c-13 -9 -13 -11 -1 -19 17 -11 43 -3 38 12 -5 15 -20 18
-37 7z m30 -4 c0 -3 -4 -8 -10 -11 -5 -3 -10 -1 -10 4 0 6 5 11 10 11 6 0 10
-2 10 -4z"/>
<path d="M5191 767 c-1 -11 -6 -15 -13 -11 -7 5 -8 3 -3 -5 10 -16 29 2 22 21
-4 8 -6 7 -6 -5z"/>
<path d="M1706 733 c-6 -14 -5 -15 5 -6 7 7 10 15 7 18 -3 3 -9 -2 -12 -12z"/>
<path d="M5209 733 c-13 -16 -12 -17 4 -4 9 7 17 15 17 17 0 8 -8 3 -21 -13z"/>
<path d="M1636 732 c-3 -5 1 -9 9 -9 8 0 12 4 9 9 -3 4 -7 8 -9 8 -2 0 -6 -4
-9 -8z"/>
<path d="M5253 719 c-2 -23 3 -25 10 -4 4 8 3 16 -1 19 -4 3 -9 -4 -9 -15z"/>
<path d="M1810 720 c0 -6 -4 -9 -8 -6 -4 2 -13 -4 -20 -15 -7 -11 -8 -19 -2
-19 5 0 10 4 10 8 0 5 10 13 22 19 15 6 18 12 10 17 -7 4 -12 2 -12 -4z"/>
<path d="M1695 701 c-3 -5 -2 -12 3 -15 5 -3 9 1 9 9 0 17 -3 19 -12 6z"/>
<path d="M1744 680 c0 -13 4 -16 10 -10 7 7 7 13 0 20 -6 6 -10 3 -10 -10z"/>
<path d="M1792 671 c-11 -6 -10 -10 4 -15 9 -3 19 -4 22 -1 3 3 0 5 -7 5 -7 0
-9 5 -6 10 7 12 4 12 -13 1z"/>
<path d="M5177 669 c7 -7 15 -10 18 -7 3 3 -2 9 -12 12 -14 6 -15 5 -6 -5z"/>
<path d="M1756 643 c-6 -14 -5 -15 5 -6 7 7 10 15 7 18 -3 3 -9 -2 -12 -12z"/>
<path d="M1815 615 c0 -13 3 -21 8 -18 4 2 7 10 7 18 0 8 -3 16 -7 18 -5 3 -8
-5 -8 -18z"/>
<path d="M5174 629 c-4 -7 -3 -9 4 -5 6 3 13 -2 15 -11 4 -16 5 -16 6 -1 1 21
-15 32 -25 17z"/>
<path d="M1836 585 c-3 -9 -11 -13 -17 -9 -8 5 -9 3 -4 -5 6 -10 11 -9 23 3 9
8 13 18 10 21 -3 3 -8 -1 -12 -10z"/>
<path d="M5153 594 c4 -4 -1 -13 -11 -20 -14 -11 -15 -15 -3 -26 11 -11 13
-10 9 2 -3 8 4 20 15 26 18 10 19 11 1 18 -10 4 -15 4 -11 0z"/>
<path d="M1890 575 c0 -8 4 -15 10 -15 5 0 7 7 4 15 -4 8 -8 15 -10 15 -2 0
-4 -7 -4 -15z"/>
<path d="M1859 563 c-13 -16 -12 -17 4 -4 16 13 21 21 13 21 -2 0 -10 -8 -17
-17z"/>
<path d="M1793 555 c0 -8 4 -12 9 -9 5 3 6 10 3 15 -9 13 -12 11 -12 -6z"/>
<path d="M1957 555 c-14 -14 -14 -45 0 -45 3 0 3 6 0 13 -5 13 17 39 27 30 3
-3 1 -14 -5 -25 -6 -11 -8 -23 -4 -26 3 -3 8 4 12 17 4 17 8 19 14 9 5 -7 9
-8 9 -2 0 6 -8 19 -19 28 -17 15 -20 16 -34 1z"/>
<path d="M5164 549 c-3 -6 0 -17 8 -25 13 -13 15 -13 15 0 0 8 -5 12 -10 9 -6
-4 -8 0 -4 10 7 19 2 23 -9 6z"/>
<path d="M1870 536 c0 -2 7 -7 16 -10 8 -3 12 -2 9 4 -6 10 -25 14 -25 6z"/>
<path d="M1994 496 c-10 -8 -16 -18 -11 -22 4 -4 7 -2 7 5 0 7 5 9 10 6 6 -3
10 -1 10 5 0 7 7 9 16 6 8 -3 12 -2 9 4 -8 14 -18 13 -41 -4z"/>
<path d="M1924 493 c4 -4 16 -8 28 -10 28 -4 18 6 -12 12 -12 2 -20 1 -16 -2z"/>
<path d="M5152 471 c2 -18 -3 -24 -11 -13 -7 11 -9 11 -14 0 -3 -10 3 -14 19
-14 13 0 21 2 19 5 -3 2 0 9 5 16 7 8 5 12 -5 12 -7 0 -14 -3 -13 -6z"/>
<path d="M2075 450 c-5 -8 -4 -11 2 -7 11 7 28 -20 24 -38 -1 -5 3 -4 10 3 18
17 34 15 19 -3 -11 -13 -10 -14 4 -9 20 8 16 29 -5 29 -8 0 -21 9 -30 19 -12
15 -18 16 -24 6z"/>
<path d="M1990 431 c0 -6 4 -13 10 -16 6 -3 7 1 4 9 -7 18 -14 21 -14 7z"/>
<path d="M2056 426 c6 -15 4 -17 -6 -11 -9 6 -11 4 -5 -4 5 -9 10 -10 18 -2 8
8 7 14 -2 24 -10 10 -11 8 -5 -7z"/>
<path d="M5094 426 c-3 -8 -1 -22 4 -32 7 -13 9 -10 8 15 -1 34 -4 38 -12 17z"/>
<path d="M2166 417 c3 -10 9 -15 12 -12 3 3 0 11 -7 18 -10 9 -11 8 -5 -6z"/>
<path d="M3034 422 c4 -3 14 -7 22 -8 9 -1 13 0 10 4 -4 3 -14 7 -22 8 -9 1
-13 0 -10 -4z"/>
<path d="M3994 422 c4 -3 14 -7 22 -8 9 -1 13 0 10 4 -4 3 -14 7 -22 8 -9 1
-13 0 -10 -4z"/>
<path d="M5135 420 c-4 -6 -12 -7 -18 -4 -7 4 -8 3 -4 -1 13 -15 34 -14 34 1
0 17 -4 18 -12 4z"/>
<path d="M2193 384 c0 -13 4 -24 9 -24 5 0 7 4 4 9 -4 5 -2 11 3 13 5 1 3 8
-4 15 -10 9 -12 6 -12 -13z"/>
<path d="M5035 400 c3 -5 8 -10 11 -10 2 0 4 5 4 10 0 6 -5 10 -11 10 -5 0 -7
-4 -4 -10z"/>
<path d="M2027 389 c7 -7 15 -10 18 -7 3 3 -2 9 -12 12 -14 6 -15 5 -6 -5z"/>
<path d="M2073 385 c0 -8 4 -12 9 -9 4 3 8 9 8 15 0 5 -4 9 -8 9 -5 0 -9 -7
-9 -15z"/>
<path d="M2150 380 c0 -5 7 -7 15 -4 8 4 15 8 15 10 0 2 -7 4 -15 4 -8 0 -15
-4 -15 -10z"/>
<path d="M5075 381 c-3 -5 -2 -12 3 -15 5 -3 9 1 9 9 0 17 -3 19 -12 6z"/>
<path d="M2053 355 c0 -8 4 -12 9 -9 5 3 6 10 3 15 -9 13 -12 11 -12 -6z"/>
<path d="M2420 355 c-7 -9 -8 -15 -2 -15 5 0 12 7 16 15 3 8 4 15 2 15 -2 0
-9 -7 -16 -15z"/>
<path d="M2616 359 c2 -4 -4 -10 -13 -12 -15 -4 -15 -5 -2 -6 9 0 22 5 28 12
8 10 7 14 -4 14 -8 0 -12 -4 -9 -8z"/>
<path d="M2724 363 c4 -7 2 -13 -3 -13 -6 0 -11 -5 -11 -11 0 -8 6 -7 17 2 15
12 16 12 9 -6 -6 -16 -5 -18 5 -7 11 10 10 16 -5 30 -11 9 -16 11 -12 5z"/>
<path d="M3166 357 c3 -9 10 -17 16 -17 5 0 6 -5 2 -12 -5 -7 -3 -8 6 -3 9 6
12 4 8 -7 -4 -8 0 -15 7 -15 17 0 6 24 -25 52 -18 16 -20 16 -14 2z"/>
<path d="M3576 359 c2 -4 -4 -10 -13 -12 -15 -4 -15 -5 -2 -6 9 0 22 5 28 12
8 10 7 14 -4 14 -8 0 -12 -4 -9 -8z"/>
<path d="M3684 363 c4 -7 2 -13 -3 -13 -6 0 -11 -5 -11 -11 0 -8 6 -7 17 2 15
12 16 12 9 -6 -6 -16 -5 -18 5 -7 11 10 10 16 -5 30 -11 9 -16 11 -12 5z"/>
<path d="M4126 357 c3 -9 10 -17 16 -17 5 0 6 -5 2 -12 -5 -7 -3 -8 6 -3 9 6
12 4 8 -7 -4 -8 0 -15 7 -15 17 0 6 24 -25 52 -18 16 -20 16 -14 2z"/>
<path d="M4536 359 c2 -4 -4 -10 -13 -12 -15 -4 -15 -5 -2 -6 9 0 22 5 28 12
8 10 7 14 -4 14 -8 0 -12 -4 -9 -8z"/>
<path d="M4644 363 c4 -7 2 -13 -3 -13 -6 0 -11 -5 -11 -11 0 -8 6 -7 17 2 15
12 16 12 9 -6 -6 -16 -5 -18 5 -7 11 10 10 16 -5 30 -11 9 -16 11 -12 5z"/>
<path d="M5034 345 c0 -13 3 -22 7 -19 8 4 6 30 -2 38 -3 3 -5 -5 -5 -19z"/>
<path d="M2158 342 c4 -10 7 -12 10 -4 2 7 9 9 15 5 7 -3 8 -2 4 2 -14 16 -36
14 -29 -3z"/>
<path d="M2220 356 c0 -2 9 -6 20 -9 11 -3 18 -1 14 4 -5 9 -34 13 -34 5z"/>
<path d="M2900 349 c0 -5 5 -7 12 -3 8 5 9 0 5 -16 -4 -16 -3 -20 5 -12 6 6 8
18 5 26 -7 18 -27 22 -27 5z"/>
<path d="M3310 353 c0 -6 8 -17 18 -24 16 -13 16 -13 2 6 -8 11 -16 22 -17 24
-2 2 -3 0 -3 -6z"/>
<path d="M3860 349 c0 -5 5 -7 12 -3 8 5 9 0 5 -16 -4 -16 -3 -20 5 -12 6 6 8
18 5 26 -7 18 -27 22 -27 5z"/>
<path d="M4270 353 c0 -6 8 -17 18 -24 16 -13 16 -13 2 6 -8 11 -16 22 -17 24
-2 2 -3 0 -3 -6z"/>
<path d="M4979 358 c0 -2 -2 -13 -3 -26 -3 -21 -2 -21 18 -5 12 10 23 20 26
22 3 2 -6 0 -19 -4 -16 -5 -21 -4 -17 4 4 6 5 11 2 11 -3 0 -6 -1 -7 -2z"/>
<path d="M5074 343 c16 -20 36 -23 36 -6 0 4 -3 3 -7 0 -3 -4 -16 1 -27 10
-21 18 -21 18 -2 -4z"/>
<path d="M2441 343 c-1 -17 16 -25 25 -12 4 7 3 9 -4 5 -5 -3 -13 0 -15 6 -4
9 -6 10 -6 1z"/>
<path d="M2571 334 c0 -11 3 -14 6 -6 3 7 2 16 -1 19 -3 4 -6 -2 -5 -13z"/>
<path d="M2637 343 c-4 -3 -7 -11 -7 -17 0 -6 5 -5 12 2 6 6 9 14 7 17 -3 3
-9 2 -12 -2z"/>
<path d="M2759 327 c-16 -21 -16 -23 1 -23 11 0 16 5 12 15 -3 9 -1 12 6 7 8
-5 10 -2 6 8 -7 19 -6 20 -25 -7z"/>
<path d="M3150 336 c0 -8 4 -17 9 -20 5 -4 7 3 4 14 -6 23 -13 26 -13 6z"/>
<path d="M3353 327 c-9 -18 -8 -24 2 -24 8 0 11 7 7 15 -3 10 -1 13 6 8 8 -5
10 -2 6 8 -8 21 -9 20 -21 -7z"/>
<path d="M3531 334 c0 -11 3 -14 6 -6 3 7 2 16 -1 19 -3 4 -6 -2 -5 -13z"/>
<path d="M3597 343 c-4 -3 -7 -11 -7 -17 0 -6 5 -5 12 2 6 6 9 14 7 17 -3 3
-9 2 -12 -2z"/>
<path d="M3719 327 c-16 -21 -16 -23 1 -23 11 0 16 5 12 15 -3 9 -1 12 6 7 8
-5 10 -2 6 8 -7 19 -6 20 -25 -7z"/>
<path d="M4110 336 c0 -8 4 -17 9 -20 5 -4 7 3 4 14 -6 23 -13 26 -13 6z"/>
<path d="M4313 327 c-9 -18 -8 -24 2 -24 8 0 11 7 7 15 -3 10 -1 13 6 8 8 -5
10 -2 6 8 -8 21 -9 20 -21 -7z"/>
<path d="M4491 334 c0 -11 3 -14 6 -6 3 7 2 16 -1 19 -3 4 -6 -2 -5 -13z"/>
<path d="M4557 343 c-4 -3 -7 -11 -7 -17 0 -6 5 -5 12 2 6 6 9 14 7 17 -3 3
-9 2 -12 -2z"/>
<path d="M4679 327 c-16 -21 -16 -23 1 -23 11 0 16 5 12 15 -3 9 -1 12 6 7 8
-5 10 -2 6 8 -7 19 -6 20 -25 -7z"/>
<path d="M4831 334 c0 -11 3 -14 6 -6 3 7 2 16 -1 19 -3 4 -6 -2 -5 -13z"/>
<path d="M2205 330 c-3 -6 1 -7 9 -4 18 7 21 14 7 14 -6 0 -13 -4 -16 -10z"/>
<path d="M2295 331 c-3 -5 0 -13 6 -17 8 -5 9 -3 4 6 -6 10 -4 12 9 7 10 -4
15 -3 11 3 -8 13 -22 13 -30 1z"/>
<path d="M2353 333 c4 -3 3 -11 -3 -17 -6 -8 -3 -12 9 -12 12 0 17 6 13 18 -2
10 -9 18 -15 18 -6 0 -7 -3 -4 -7z"/>
<path d="M2490 335 c0 -8 29 -12 39 -5 9 5 4 8 -13 8 -14 0 -26 -2 -26 -3z"/>
<path d="M2670 326 c7 -7 13 -7 20 0 6 6 3 10 -10 10 -13 0 -16 -4 -10 -10z"/>
<path d="M3278 333 c13 -3 19 -9 16 -15 -4 -7 -2 -8 5 -4 17 11 3 26 -22 25
-22 -2 -22 -2 1 -6z"/>
<path d="M3399 323 c-13 -17 -13 -17 6 -3 11 8 22 16 24 17 2 2 0 3 -6 3 -6 0
-17 -8 -24 -17z"/>
<path d="M3630 326 c7 -7 13 -7 20 0 6 6 3 10 -10 10 -13 0 -16 -4 -10 -10z"/>
<path d="M4238 333 c13 -3 19 -9 16 -15 -4 -7 -2 -8 5 -4 17 11 3 26 -22 25
-22 -2 -22 -2 1 -6z"/>
<path d="M4359 323 c-13 -17 -13 -17 6 -3 11 8 22 16 24 17 2 2 0 3 -6 3 -6 0
-17 -8 -24 -17z"/>
<path d="M4602 328 c-15 -15 -15 -28 0 -28 6 0 8 3 5 7 -4 3 -2 12 4 20 14 16
7 17 -9 1z"/>
<path d="M2390 326 c0 -2 9 -6 20 -9 11 -3 18 -1 14 4 -5 9 -34 13 -34 5z"/>
<path d="M2797 317 c-3 -8 1 -14 8 -14 7 0 11 6 8 14 -6 16 -10 16 -16 0z"/>
<path d="M3757 317 c-3 -8 1 -14 8 -14 7 0 11 6 8 14 -6 16 -10 16 -16 0z"/>
<path d="M4717 317 c-3 -8 1 -14 8 -14 7 0 11 6 8 14 -6 16 -10 16 -16 0z"/>
<path d="M4855 320 c-3 -6 1 -7 9 -4 18 7 21 14 7 14 -6 0 -13 -4 -16 -10z"/>
<path d="M2472 311 c2 -19 -4 -24 -13 -11 -8 12 -10 12 -7 1 2 -8 12 -15 22
-17 10 -1 15 0 12 3 -3 4 -1 11 4 18 7 8 5 12 -5 12 -7 0 -14 -3 -13 -6z"/>
<path d="M2598 313 c7 -3 16 -2 19 1 4 3 -2 6 -13 5 -11 0 -14 -3 -6 -6z"/>
<path d="M2958 313 c7 -3 16 -2 19 1 4 3 -2 6 -13 5 -11 0 -14 -3 -6 -6z"/>
<path d="M3108 313 c7 -3 16 -2 19 1 4 3 -2 6 -13 5 -11 0 -14 -3 -6 -6z"/>
<path d="M3438 313 c7 -3 16 -2 19 1 4 3 -2 6 -13 5 -11 0 -14 -3 -6 -6z"/>
<path d="M3558 313 c7 -3 16 -2 19 1 4 3 -2 6 -13 5 -11 0 -14 -3 -6 -6z"/>
<path d="M3918 313 c7 -3 16 -2 19 1 4 3 -2 6 -13 5 -11 0 -14 -3 -6 -6z"/>
<path d="M4068 313 c7 -3 16 -2 19 1 4 3 -2 6 -13 5 -11 0 -14 -3 -6 -6z"/>
<path d="M4398 313 c7 -3 16 -2 19 1 4 3 -2 6 -13 5 -11 0 -14 -3 -6 -6z"/>
<path d="M4517 307 c4 -7 -1 -8 -13 -3 -15 6 -17 5 -6 -5 10 -11 15 -10 28 2
13 14 13 16 0 16 -8 0 -12 -5 -9 -10z"/>
<path d="M2390 307 c0 -2 6 -10 14 -16 11 -9 16 -9 22 1 4 7 4 10 -1 6 -4 -4
-14 -3 -22 3 -7 6 -13 9 -13 6z"/>
<path d="M2577 299 c7 -7 15 -10 18 -7 3 3 -2 9 -12 12 -14 6 -15 5 -6 -5z"/>
<path d="M3135 300 c-4 -6 -11 -7 -17 -4 -7 4 -8 2 -4 -5 6 -9 11 -9 22 0 14
11 18 19 10 19 -3 0 -8 -5 -11 -10z"/>
<path d="M3413 296 c0 -15 22 -15 34 0 4 5 4 6 -1 2 -5 -4 -14 -3 -21 2 -8 7
-12 5 -12 -4z"/>
<path d="M3537 299 c7 -7 15 -10 18 -7 3 3 -2 9 -12 12 -14 6 -15 5 -6 -5z"/>
<path d="M4095 300 c-4 -6 -11 -7 -17 -4 -7 4 -8 2 -4 -5 6 -9 11 -9 22 0 14
11 18 19 10 19 -3 0 -8 -5 -11 -10z"/>
<path d="M4373 296 c0 -15 22 -15 34 0 4 5 4 6 -1 2 -5 -4 -14 -3 -21 2 -8 7
-12 5 -12 -4z"/>
<path d="M4815 299 c-4 -6 -5 -12 -2 -15 2 -3 7 2 10 11 7 17 1 20 -8 4z"/>
<path d="M4875 300 c-4 -6 -10 -8 -15 -5 -5 3 -11 1 -14 -4 -8 -13 22 -7 36 7
7 7 9 12 6 12 -4 0 -10 -5 -13 -10z"/>
<path d="M2977 285 c-4 -8 -3 -16 1 -19 4 -3 9 4 9 15 2 23 -3 25 -10 4z"/>
<path d="M3239 283 c-13 -16 -12 -17 4 -4 16 13 21 21 13 21 -2 0 -10 -8 -17
-17z"/>
<path d="M3937 285 c-4 -8 -3 -16 1 -19 4 -3 9 4 9 15 2 23 -3 25 -10 4z"/>
<path d="M4199 283 c-13 -16 -12 -17 4 -4 16 13 21 21 13 21 -2 0 -10 -8 -17
-17z"/>
<path d="M3493 275 c0 -8 4 -12 9 -9 5 3 6 10 3 15 -9 13 -12 11 -12 -6z"/>
<path d="M4453 275 c0 -8 4 -12 9 -9 5 3 6 10 3 15 -9 13 -12 11 -12 -6z"/>
<path d="M4935 281 c-3 -5 -2 -12 3 -15 5 -3 9 1 9 9 0 17 -3 19 -12 6z"/>
<path d="M3370 269 c0 -5 5 -7 10 -4 6 3 10 8 10 11 0 2 -4 4 -10 4 -5 0 -10
-5 -10 -11z"/>
<path d="M4330 269 c0 -5 5 -7 10 -4 6 3 10 8 10 11 0 2 -4 4 -10 4 -5 0 -10
-5 -10 -11z"/>
<path d="M4895 270 c3 -5 8 -10 11 -10 2 0 4 5 4 10 0 6 -5 10 -11 10 -5 0 -7
-4 -4 -10z"/>
<path d="M2554 256 c1 -8 5 -18 8 -22 4 -3 5 1 4 10 -1 8 -5 18 -8 22 -4 3 -5
-1 -4 -10z"/>
<path d="M2345 210 c-3 -6 1 -7 9 -4 18 7 21 14 7 14 -6 0 -13 -4 -16 -10z"/>
</g>
</svg>
